<svg xmlns="http://www.w3.org/2000/svg" xmlns:xlink="http://www.w3.org/1999/xlink" width="43.307mm" height="32.004mm" viewBox="4020 3034 170.5 126"><title></title><style type="text/css">
*[layerid="1"] {stroke:#000000;fill:#000000;}
*[layerid="2"] {stroke:#000000;fill:#000000;}
*[layerid="3"] {stroke:#000000;fill:#000000;}
*[layerid="4"] {stroke:#000000;fill:#000000;}
*[layerid="5"] {stroke:#000000;fill:#000000;}
*[layerid="6"] {stroke:#000000;fill:#000000;}
*[layerid="7"] {stroke:#000000;fill:#000000;}
*[layerid="8"] {stroke:#000000;fill:#000000;}
*[layerid="9"] {stroke:#000000;fill:#000000;}
*[layerid="10"] {stroke:#000000;fill:#000000;}
*[layerid="11"] {stroke:#000000;fill:#000000;}
*[layerid="12"] {stroke:#000000;fill:#000000;}
*[layerid="13"] {stroke:#000000;fill:#000000;}
*[layerid="14"] {stroke:#000000;fill:#000000;}
*[layerid="15"] {stroke:#000000;fill:#000000;}
*[layerid="19"] {stroke:#000000;fill:#000000;}
*[layerid="21"] {stroke:#000000;fill:#000000;}
*[layerid="22"] {stroke:#000000;fill:#000000;}
*[layerid="23"] {stroke:#000000;fill:#000000;}
*[layerid="24"] {stroke:#000000;fill:#000000;}
*[layerid="25"] {stroke:#000000;fill:#000000;}
*[layerid="26"] {stroke:#000000;fill:#000000;}
*[layerid="27"] {stroke:#000000;fill:#000000;}
*[layerid="28"] {stroke:#000000;fill:#000000;}
*[layerid="29"] {stroke:#000000;fill:#000000;}
*[layerid="30"] {stroke:#000000;fill:#000000;}
*[layerid="31"] {stroke:#000000;fill:#000000;}
*[layerid="32"] {stroke:#000000;fill:#000000;}
*[layerid="33"] {stroke:#000000;fill:#000000;}
*[layerid="34"] {stroke:#000000;fill:#000000;}
*[layerid="35"] {stroke:#000000;fill:#000000;}
*[layerid="36"] {stroke:#000000;fill:#000000;}
*[layerid="37"] {stroke:#000000;fill:#000000;}
*[layerid="38"] {stroke:#000000;fill:#000000;}
*[layerid="39"] {stroke:#000000;fill:#000000;}
*[layerid="40"] {stroke:#000000;fill:#000000;}
*[layerid="41"] {stroke:#000000;fill:#000000;}
*[layerid="42"] {stroke:#000000;fill:#000000;}
*[layerid="43"] {stroke:#000000;fill:#000000;}
*[layerid="44"] {stroke:#000000;fill:#000000;}
*[layerid="45"] {stroke:#000000;fill:#000000;}
*[layerid="46"] {stroke:#000000;fill:#000000;}
*[layerid="47"] {stroke:#000000;fill:#000000;}
*[layerid="48"] {stroke:#000000;fill:#000000;}
*[layerid="49"] {stroke:#000000;fill:#000000;}
*[layerid="50"] {stroke:#000000;fill:#000000;}
*[layerid="51"] {stroke:#000000;fill:#000000;}
*[layerid="52"] {stroke:#000000;fill:#000000;}
*[layerid="99"] {stroke:#000000;fill:#000000;}
*[layerid="100"] {stroke:#000000;fill:#000000;}
*[layerid="101"] {stroke:#000000;fill:#000000;}
*[layerid="Hole"] {stroke:#000000;fill:#000000;}
*[layerid="DRCError"] {stroke:#000000;fill:#000000;}
*[fill="none"] {fill: none;}
*[stroke="none"] {stroke: none;}
path, polyline, polygon, line {stroke-linecap:round;}
g[c_partid="part_pad"][layerid="1"] ellipse:not([c_etype="pad_outer"]) {fill:#000000;}
g[c_partid="part_pad"][layerid="1"] polygon:not([c_etype="pad_outer"]) {fill:#000000;}
g[c_partid="part_pad"][layerid="1"] polyline:not([c_etype="pad_outer"]) {stroke:#000000;}
g[c_partid="part_pad"][layerid="2"] ellipse:not([c_etype="pad_outer"]) {fill:#000000;}
g[c_partid="part_pad"][layerid="2"] polygon:not([c_etype="pad_outer"]) {fill:#000000;}
g[c_partid="part_pad"][layerid="2"] polyline:not([c_etype="pad_outer"]) {stroke:#000000;}
g[c_partid="part_pad"][layerid="11"] ellipse:not([c_etype="pad_outer"]) {fill:#000000;}
g[c_partid="part_pad"][layerid="11"] polygon:not([c_etype="pad_outer"]) {fill:#000000;}
g[c_partid="part_pad"][layerid="11"] polyline:not([c_etype="pad_outer"]) {stroke:#000000;}
g[c_partid="part_pad"][layerid="11"] circle {fill:#FFFFFF;}
g[c_partid="part_pad"][layerid="11"] > polyline:nth-of-type(2) {stroke:#FFFFFF;}
g[c_partid="part_pad"][layerid="11"][c_shape="ELLIPSE"]  polyline:nth-last-of-type(1) {stroke:#FFFFFF;}
g[c_partid="part_pad"][layerid="11"][c_shape="RECT"]  polyline:nth-last-of-type(1) {stroke:#FFFFFF;}
g[c_partid="part_pad"][layerid="11"][c_shape="POLYGON"]  polyline:nth-last-of-type(1) {stroke:#FFFFFF;}
g[c_partid="part_via"] > * + circle, #gCurParts g[c_partid="part_via"] > * + circle {fill:#FFFFFF;}
g[c_partid="part_pad"] > polygon[c_etype="pad_outer"], #gCurParts g[c_partid="part_pad"] > polygon[c_etype="pad_outer"] {stroke-linejoin: round;stroke-miterlimit: 100;}
g[c_partid="part_hole"] > circle {fill: #FFFFFF;}path, polyline, polygon {stroke-linejoin:round;}
rect, circle, ellipse, polyline, line, polygon, path {shape-rendering:crispEdges;}
</style>
<rect x="4020" y="3034" width="170.5" height="126" fill="#FFFFFF" stroke="none"/><polyline points="4149.0511 3100.0001 4167.5001 3100.0001 4170.0001 3102.5001" stroke-width="1"  stroke-linecap="round" fill="none" layerid="1" net="U1_2" id="gge840" locked="0" /><polyline points="4149.0511 3090.0001 4164.5001 3090.0001 4169.5001 3085.0001" stroke-width="1"  stroke-linecap="round" fill="none" layerid="1" net="U1_3" id="gge843" locked="0" /><polyline points="4122.0001 3136.0001 4122.0001 3140.2511" stroke-width="1"  stroke-linecap="round" fill="none" layerid="1" net="Q1_1" id="gge846" locked="0" /><polyline points="4108.5001 3140.0001 4108.7511 3140.2511 4122.0001 3140.2511" stroke-width="1"  stroke-linecap="round" fill="none" layerid="1" net="Q1_1" id="gge849" locked="0" /><polyline points="4170.0001 3132.5001 4161.2921 3141.2081 4130.9051 3141.2081 4127.0001 3137.3031 4127.0001 3136.0001" stroke-width="1"  stroke-linecap="round" fill="none" layerid="1" net="Q1_2" id="gge852" locked="0" /><polyline points="4132.0001 3136.0001 4132.0001 3097.0511 4149.0511 3080.0001" stroke-width="1"  stroke-linecap="round" fill="none" layerid="1" net="GND" id="gge855" locked="0" /><polyline points="4149.0511 3080.0001 4148.5001 3079.4491 4148.5001 3064.0001" stroke-width="1"  stroke-linecap="round" fill="none" layerid="1" net="GND" id="gge858" locked="0" /><polyline points="4169.5001 3055.0001 4149.5001 3055.0001 4148.5001 3054.0001" stroke-width="1"  stroke-linecap="round" fill="none" layerid="1" net="LED1_1" id="gge861" locked="0" /><polyline points="4078.5001 3140.0001 4059.0001 3120.5001 4059.0001 3114.2951" stroke-width="1"  stroke-linecap="round" fill="none" layerid="1" net="BUZZER1_2" id="gge864" locked="0" /><polyline points="4059.0001 3088.7041 4062.4611 3088.7041" stroke-width="1"  stroke-linecap="round" fill="none" layerid="1" net="+5V" id="gge867" locked="0" /><polyline points="4117.9491 3110.0001 4083.7571 3110.0001 4062.4611 3088.7041" stroke-width="1"  stroke-linecap="round" fill="none" layerid="1" net="+5V" id="gge870" locked="0" /><polyline points="4117.9491 3100.0001 4075.3191 3057.3701 4075.3191 3050.5751" stroke-width="1"  stroke-linecap="round" fill="none" layerid="1" net="U1_7" id="gge873" locked="0" /><path d="M 4042.8969 3046.866 L 4042.8758 3046.8883 L 4042.7707 3046.8998 L 4042.6657 3046.9114 L 4042.5305 3046.9528 L 4042.3953 3046.9946 L 4042.2601 3047.0551 L 4042.1248 3047.1156 L 4042.0618 3047.1543 L 4041.9986 3047.193 L 4041.9647 3047.2134 L 4041.9308 3047.2339 L 4041.7934 3047.3344 L 4041.6561 3047.435 L 4041.4786 3047.5591 L 4041.301 3047.6836 L 4041.2144 3047.7419 L 4041.1278 3047.8002 L 4040.9503 3047.9243 L 4040.7727 3048.0484 L 4040.6285 3048.1534 L 4040.4843 3048.2579 L 4040.4633 3048.2739 L 4040.4422 3048.2899 L 4040.1477 3048.4954 L 4039.8533 3048.701 L 4039.655 3048.8402 L 4039.4567 3048.979 L 4039.3642 3049.047 L 4039.2717 3049.1155 L 4039.229 3049.144 L 4039.1862 3049.1725 L 4039.1502 3049.1983 L 4039.1141 3049.2241 L 4038.9674 3049.3277 L 4038.8205 3049.4318 L 4038.6185 3049.5733 L 4038.4165 3049.7147 L 4038.2411 3049.8397 L 4038.0657 3049.9647 L 4038.013 3050.0016 L 4037.9603 3050.0381 L 4037.9243 3050.0639 L 4037.8882 3050.0897 L 4037.7414 3050.1938 L 4037.5947 3050.2979 L 4037.3926 3050.4394 L 4037.1906 3050.5808 L 4037.0152 3050.7058 L 4036.8399 3050.8308 L 4036.7795 3050.8722 L 4036.7191 3050.914 L 4036.5438 3051.0385 L 4036.3684 3051.1635 L 4036.1664 3051.305 L 4035.9643 3051.4469 L 4035.8176 3051.5505 L 4035.6707 3051.6546 L 4035.6347 3051.6804 L 4035.5987 3051.7062 L 4035.546 3051.7431 L 4035.4932 3051.7796 L 4035.3179 3051.9046 L 4035.1425 3052.0296 L 4034.9405 3052.1711 L 4034.7384 3052.3125 L 4034.5977 3052.4126 L 4034.457 3052.5123 L 4034.4149 3052.5407 L 4034.3727 3052.5692 L 4034.3367 3052.595 L 4034.3006 3052.6208 L 4034.1089 3052.7582 L 4033.9172 3052.8953 L 4033.7145 3053.0367 L 4033.5119 3053.1786 L 4033.3383 3053.3049 L 4033.1649 3053.4313 L 4033.0309 3053.5545 L 4032.897 3053.6782 L 4032.787 3053.8027 L 4032.677 3053.9277 L 4032.6045 3054.0278 L 4032.532 3054.1274 L 4032.4202 3054.3361 L 4032.3085 3054.5442 L 4032.3084 3054.5692 L 4032.3083 3054.5941 L 4032.2809 3054.6425 L 4032.2534 3054.691 L 4032.2285 3054.7925 L 4032.2035 3054.8934 L 4032.1815 3054.9686 L 4032.1595 3055.0433 L 4032.161 3055.4183 L 4032.1625 3055.7929 L 4032.1821 3056.0175 L 4032.2018 3056.2422 L 4032.2189 3056.441 L 4032.236 3056.6398 L 4032.2393 3056.9241 L 4032.2425 3057.2083 L 4032.1936 3057.3133 L 4032.1447 3057.4187 L 4032.0799 3057.505 L 4032.015 3057.5913 L 4031.7048 3057.8742 L 4031.3947 3058.1572 L 4031.3005 3058.2906 L 4031.2063 3058.4236 L 4031.1187 3058.5904 L 4031.031 3058.7568 L 4030.987 3058.8818 L 4030.9429 3059.0068 L 4030.9298 3059.1113 L 4030.9167 3059.2158 L 4030.8915 3059.239 L 4030.8662 3059.2621 L 4030.8662 3059.4396 L 4030.8662 3059.6166 L 4030.892 3059.6407 L 4030.9177 3059.6642 L 4030.9306 3059.7599 L 4030.9435 3059.856 L 4030.987 3059.9641 L 4031.0304 3060.0721 L 4031.0612 3060.1304 L 4031.0919 3060.1887 L 4031.1797 3060.3092 L 4031.2674 3060.4298 L 4031.7023 3060.8235 L 4032.1372 3061.2167 L 4032.7232 3061.7523 L 4033.309 3062.2883 L 4033.4132 3062.3595 L 4033.5174 3062.4302 L 4033.6296 3062.484 L 4033.7417 3062.5374 L 4033.8882 3062.5828 L 4034.0346 3062.6281 L 4034.0837 3062.6281 L 4034.1328 3062.6281 L 4034.1807 3062.653 L 4034.2285 3062.6775 L 4034.3367 3062.7122 L 4034.4449 3062.7474 L 4034.535 3062.7611 L 4034.6251 3062.7754 L 4034.6921 3062.8016 L 4034.7592 3062.8283 L 4034.8132 3062.8283 L 4034.8672 3062.8283 L 4034.9586 3062.8612 L 4035.0501 3062.8946 L 4035.1029 3062.8946 L 4035.1556 3062.8946 L 4035.2471 3062.928 L 4035.3386 3062.9613 L 4035.3913 3062.9613 L 4035.4441 3062.9613 L 4035.5356 3062.9947 L 4035.627 3063.028 L 4035.6766 3063.028 L 4035.7261 3063.028 L 4035.8287 3063.0614 L 4035.9313 3063.0943 L 4035.9903 3063.0948 L 4036.0494 3063.0948 L 4036.1019 3063.1201 L 4036.1546 3063.1455 L 4036.2642 3063.1602 L 4036.3738 3063.1748 L 4036.4409 3063.2015 L 4036.5079 3063.2278 L 4036.5619 3063.2278 L 4036.6159 3063.2278 L 4036.7074 3063.2611 L 4036.7989 3063.2945 L 4036.8622 3063.2945 L 4036.9255 3063.2945 L 4036.9793 3063.3198 L 4037.0331 3063.3456 L 4037.1452 3063.3603 L 4037.2573 3063.3746 L 4037.3294 3063.4004 L 4037.4014 3063.4262 L 4037.47 3063.4271 L 4037.5384 3063.4275 L 4037.5917 3063.4529 L 4037.645 3063.4787 L 4037.7719 3063.4933 L 4037.8987 3063.508 L 4037.9226 3063.5263 L 4037.9464 3063.5445 L 4038.0706 3063.5596 L 4038.1947 3063.5743 L 4038.2617 3063.601 L 4038.3287 3063.6272 L 4038.3886 3063.6272 L 4038.4484 3063.6272 L 4038.5509 3063.6606 L 4038.6535 3063.694 L 4038.7306 3063.694 L 4038.8077 3063.6944 L 4038.8617 3063.7202 L 4038.9158 3063.7464 L 4039.042 3063.7607 L 4039.1682 3063.7754 L 4039.2404 3063.8007 L 4039.3124 3063.8256 L 4039.3762 3063.8265 L 4039.4399 3063.8274 L 4039.5425 3063.8603 L 4039.6451 3063.8937 L 4039.7063 3063.8937 L 4039.7675 3063.8937 L 4039.8804 3063.927 L 4039.9932 3063.9604 L 4040.0591 3063.9604 L 4040.125 3063.9604 L 4040.2275 3063.9938 L 4040.3301 3064.0271 L 4040.4033 3064.0271 L 4040.4764 3064.0271 L 4040.5428 3064.0525 L 4040.6091 3064.0783 L 4040.718 3064.0876 L 4040.8268 3064.0965 L 4040.9306 3064.1286 L 4041.0343 3064.1601 L 4041.1109 3064.161 L 4041.1874 3064.1619 L 4041.2595 3064.1859 L 4041.3316 3064.2104 L 4041.4398 3064.2206 L 4041.5479 3064.2304 L 4041.6625 3064.262 L 4041.7771 3064.2936 L 4041.8518 3064.2936 L 4041.9265 3064.294 L 4042.0408 3064.3269 L 4042.1551 3064.3603 L 4042.2352 3064.3603 L 4042.3153 3064.3603 L 4042.3823 3064.3861 L 4042.4494 3064.4124 L 4042.5755 3064.4212 L 4042.7018 3064.4301 L 4042.8163 3064.4617 L 4042.9309 3064.4933 L 4043.0237 3064.4942 L 4043.1164 3064.4946 L 4043.1885 3064.5191 L 4043.2606 3064.5436 L 4043.4229 3064.5596 L 4043.5851 3064.5752 L 4043.6572 3064.6001 L 4043.7293 3064.625 L 4043.8285 3064.6263 L 4043.9276 3064.6272 L 4044.0617 3064.6601 L 4044.1956 3064.693 L 4044.296 3064.6939 L 4044.3964 3064.6944 L 4044.4685 3064.7193 L 4044.5406 3064.7438 L 4044.7119 3064.7584 L 4044.8832 3064.7731 L 4044.9372 3064.7927 L 4044.9913 3064.8123 L 4045.1844 3064.8265 L 4045.3775 3064.8412 L 4045.4133 3064.859 L 4045.4491 3064.8763 L 4045.6567 3064.8923 L 4045.8644 3064.9079 L 4045.9001 3064.9252 L 4045.9358 3064.943 L 4046.1397 3064.9586 L 4046.3435 3064.9737 L 4046.3965 3064.9924 L 4046.4496 3065.0111 L 4046.6805 3065.0262 L 4046.9113 3065.0418 L 4046.9461 3065.0587 L 4046.9809 3065.076 L 4047.212 3065.0912 L 4047.4432 3065.1067 L 4047.4955 3065.1254 L 4047.5479 3065.1437 L 4047.802 3065.1588 L 4048.0561 3065.1735 L 4048.1091 3065.1921 L 4048.162 3065.2108 L 4048.4245 3065.2259 L 4048.6871 3065.2411 L 4048.7502 3065.2593 L 4048.8133 3065.2771 L 4049.1107 3065.2927 L 4049.4082 3065.3078 L 4049.4713 3065.3256 L 4049.5344 3065.3434 L 4049.868 3065.3598 L 4050.2014 3065.3763 L 4050.2736 3065.3928 L 4050.3457 3065.4097 L 4050.7333 3065.4257 L 4051.1209 3065.4421 L 4051.211 3065.4595 L 4051.3012 3065.4768 L 4051.824 3065.4924 L 4052.3468 3065.5084 L 4052.5181 3065.5293 L 4052.6894 3065.5507 L 4054.4832 3065.5507 L 4056.2769 3065.5507 L 4056.4212 3065.5289 L 4056.5654 3065.5066 L 4056.9891 3065.492 L 4057.4128 3065.4768 L 4057.4758 3065.4595 L 4057.5389 3065.4417 L 4057.8364 3065.4261 L 4058.1339 3065.4101 L 4058.197 3065.3923 L 4058.2601 3065.3741 L 4058.4884 3065.3585 L 4058.7167 3065.3429 L 4058.7672 3065.3251 L 4058.8178 3065.3074 L 4059.003 3065.2922 L 4059.1882 3065.2771 L 4059.224 3065.2593 L 4059.2598 3065.242 L 4059.4299 3065.2268 L 4059.5999 3065.2122 L 4059.638 3065.1935 L 4059.6761 3065.1743 L 4059.8265 3065.1588 L 4059.977 3065.1428 L 4060.0419 3065.1179 L 4060.1068 3065.0929 L 4060.166 3065.0929 L 4060.2252 3065.0934 L 4060.3423 3065.0609 L 4060.4595 3065.0289 L 4060.5496 3065.012 L 4060.6398 3064.9955 L 4060.7209 3064.9764 L 4060.802 3064.9573 L 4060.8832 3064.9319 L 4060.9643 3064.9066 L 4061.0545 3064.8932 L 4061.1446 3064.8794 L 4061.1986 3064.8532 L 4061.2527 3064.8265 L 4061.294 3064.8265 L 4061.3353 3064.8265 L 4061.406 3064.7931 L 4061.4766 3064.7598 L 4061.5182 3064.7598 L 4061.5598 3064.7598 L 4061.627 3064.7264 L 4061.6943 3064.693 L 4061.7312 3064.693 L 4061.768 3064.693 L 4061.8387 3064.6597 L 4061.9093 3064.6263 L 4061.9416 3064.6263 L 4061.9739 3064.6263 L 4062.028 3064.5934 L 4062.082 3064.56 L 4062.1181 3064.56 L 4062.1542 3064.5596 L 4062.2082 3064.5267 L 4062.2623 3064.4933 L 4062.2948 3064.4933 L 4062.3273 3064.4933 L 4062.394 3064.4608 L 4062.4606 3064.4284 L 4062.704 3064.3172 L 4062.9474 3064.2064 L 4063.0376 3064.1597 L 4063.1277 3064.113 L 4063.1817 3064.0867 L 4063.2359 3064.0605 L 4063.344 3063.9938 L 4063.4522 3063.927 L 4063.5311 3063.8812 L 4063.61 3063.8354 L 4063.8376 3063.6673 L 4064.0651 3063.4987 L 4064.2189 3063.351 L 4064.3727 3063.2029 L 4064.4803 3063.0725 L 4064.588 3062.9422 L 4064.6552 3062.8479 L 4064.7224 3062.7531 L 4064.7579 3062.6949 L 4064.7934 3062.6366 L 4064.8143 3062.5952 L 4064.8352 3062.5534 L 4064.8486 3062.5285 L 4064.862 3062.5036 L 4064.9161 3062.4982 L 4064.9702 3062.4934 L 4064.9976 3062.5316 L 4065.025 3062.5699 L 4065.0693 3062.6117 L 4065.1136 3062.6535 L 4065.192 3062.7531 L 4065.2705 3062.8532 L 4065.3716 3062.9698 L 4065.4726 3063.0863 L 4065.5016 3063.1277 L 4065.5307 3063.1695 L 4065.5731 3063.2104 L 4065.6156 3063.2518 L 4065.7282 3063.3897 L 4065.8409 3063.5276 L 4065.9536 3063.665 L 4066.0663 3063.8029 L 4066.1056 3063.839 L 4066.145 3063.875 L 4066.1771 3063.9217 L 4066.2092 3063.9689 L 4066.3103 3064.0854 L 4066.4113 3064.2019 L 4066.4896 3064.3016 L 4066.5678 3064.4017 L 4066.5964 3064.4279 L 4066.6251 3064.4542 L 4066.6612 3064.5009 L 4066.6973 3064.5471 L 4066.8095 3064.677 L 4066.9219 3064.8074 L 4066.9686 3064.871 L 4067.0154 3064.9346 L 4067.0758 3065.0013 L 4067.1362 3065.0676 L 4067.3176 3065.2842 L 4067.4989 3065.5009 L 4067.716 3065.7589 L 4067.933 3066.0169 L 4068.1895 3066.3211 L 4068.446 3066.6254 L 4068.5902 3066.8011 L 4068.7344 3066.9768 L 4068.8125 3067.0515 L 4068.8907 3067.1263 L 4068.9354 3067.1418 L 4068.9802 3067.1574 L 4069.065 3067.1574 L 4069.1498 3067.1574 L 4069.2215 3067.1125 L 4069.2933 3067.0675 L 4069.3242 3067.0333 L 4069.355 3066.9995 L 4069.392 3066.8909 L 4069.429 3066.7824 L 4069.4109 3066.6992 L 4069.3928 3066.6165 L 4069.3743 3066.2415 L 4069.3559 3065.8669 L 4069.338 3065.8007 L 4069.3199 3065.7339 L 4069.3018 3065.3594 L 4069.2836 3064.9844 L 4069.2661 3064.9097 L 4069.2487 3064.8345 L 4069.2302 3064.4599 L 4069.2117 3064.0854 L 4069.1937 3064.0187 L 4069.1757 3063.952 L 4069.1576 3063.5774 L 4069.1394 3063.2029 L 4069.1216 3063.1277 L 4069.1039 3063.053 L 4069.0858 3062.6784 L 4069.0677 3062.3034 L 4069.0496 3062.2371 L 4069.0315 3062.1704 L 4069.014 3061.7874 L 4068.9964 3061.4044 L 4068.9776 3061.3461 L 4068.959 3061.2879 L 4068.9426 3060.924 L 4068.9263 3060.5601 L 4068.9377 3060.5325 L 4068.949 3060.5054 L 4068.9859 3060.4765 L 4069.0229 3060.4476 L 4069.2212 3060.3546 L 4069.4195 3060.2616 L 4069.6899 3060.1326 L 4069.9604 3060.0036 L 4070.0054 3059.9814 L 4070.0505 3059.9587 L 4070.0775 3059.9449 L 4070.1046 3059.9311 L 4070.2523 3059.8644 L 4070.3999 3059.7977 L 4070.4111 3059.7808 L 4070.4222 3059.7643 L 4070.4544 3059.7643 L 4070.4867 3059.7643 L 4070.5282 3059.731 L 4070.5698 3059.6976 L 4070.6021 3059.6976 L 4070.6343 3059.6976 L 4070.6464 3059.6794 L 4070.6584 3059.6616 L 4070.733 3059.63 L 4070.8077 3059.598 L 4070.8347 3059.5828 L 4070.8618 3059.5682 L 4070.9068 3059.5495 L 4070.9519 3059.5312 L 4070.9789 3059.5148 L 4071.006 3059.4979 L 4071.0511 3059.4805 L 4071.0961 3059.4632 L 4071.3125 3059.3573 L 4071.5288 3059.2514 L 4071.7812 3059.1318 L 4072.0336 3059.0117 L 4072.0877 3058.9854 L 4072.1418 3058.9596 L 4072.1688 3058.9454 L 4072.1958 3058.9312 L 4072.2705 3058.8996 L 4072.3451 3058.8675 L 4072.3572 3058.8498 L 4072.3693 3058.8315 L 4072.4018 3058.8315 L 4072.4344 3058.8315 L 4072.4802 3058.7986 L 4072.526 3058.7652 L 4072.552 3058.7652 L 4072.5779 3058.7652 L 4072.6195 3058.7319 L 4072.6611 3058.6985 L 4072.6933 3058.6985 L 4072.7256 3058.6985 L 4072.7376 3058.6803 L 4072.7497 3058.6625 L 4072.8243 3058.6309 L 4072.8989 3058.5989 L 4072.926 3058.5837 L 4072.9531 3058.5691 L 4072.9981 3058.5495 L 4073.0432 3058.5304 L 4073.0972 3058.5055 L 4073.1513 3058.4801 L 4073.1784 3058.4654 L 4073.2054 3058.4507 L 4073.4038 3058.3564 L 4073.6021 3058.2621 L 4073.7102 3058.2092 L 4073.8184 3058.1563 L 4073.8834 3058.1153 L 4073.9485 3058.074 L 4073.9966 3058.021 L 4074.0447 3057.9685 L 4074.064 3057.9169 L 4074.0833 3057.8658 L 4074.1086 3057.8658 L 4074.1339 3057.8658 L 4074.1339 3057.6496 L 4074.1339 3057.433 L 4074.1149 3057.433 L 4074.096 3057.433 L 4074.0688 3057.3729 L 4074.0417 3057.3129 L 4073.9774 3057.2488 L 4073.9131 3057.1848 L 4073.8255 3057.142 L 4073.7379 3057.0998 L 4073.6945 3057.0998 L 4073.651 3057.0998 L 4073.5725 3057.0669 L 4073.4939 3057.034 L 4073.4398 3057.0335 L 4073.3857 3057.0331 L 4073.3316 3057.0068 L 4073.2775 3056.9801 L 4073.1874 3056.9668 L 4073.0972 3056.953 L 4073.0161 3056.9276 L 4072.935 3056.9023 L 4072.8584 3056.8845 L 4072.7818 3056.8667 L 4072.7051 3056.8489 L 4072.6285 3056.8307 L 4072.5745 3056.8138 L 4072.5204 3056.7964 L 4072.4482 3056.7808 L 4072.3761 3056.7648 L 4072.2679 3056.7324 L 4072.1598 3056.7003 L 4072.1147 3056.6999 L 4072.0696 3056.699 L 4071.9975 3056.667 L 4071.9254 3056.6349 L 4071.8688 3056.6341 L 4071.8122 3056.6336 L 4071.7336 3056.6007 L 4071.655 3056.5678 L 4071.6009 3056.5673 L 4071.5468 3056.5669 L 4071.4949 3056.542 L 4071.4429 3056.5166 L 4071.3687 3056.5073 L 4071.2944 3056.4979 L 4071.21 3056.4659 L 4071.1255 3056.4339 L 4071.0722 3056.4339 L 4071.0189 3056.4339 L 4070.9404 3056.401 L 4070.8618 3056.368 L 4070.8051 3056.3676 L 4070.7485 3056.3672 L 4070.6699 3056.3342 L 4070.5914 3056.3013 L 4070.5347 3056.3009 L 4070.4781 3056.3004 L 4070.3995 3056.2675 L 4070.3209 3056.2346 L 4070.2643 3056.2346 L 4070.2076 3056.2342 L 4070.1291 3056.2012 L 4070.0505 3056.1683 L 4069.9939 3056.1679 L 4069.9372 3056.1674 L 4069.8587 3056.1345 L 4069.7801 3056.1016 L 4069.717 3056.1011 L 4069.6539 3056.1007 L 4069.6024 3056.0758 L 4069.5509 3056.0509 L 4069.4492 3056.0358 L 4069.3474 3056.0202 L 4069.2804 3055.9939 L 4069.2133 3055.9677 L 4069.1542 3055.9677 L 4069.095 3055.9673 L 4069.042 3055.9419 L 4068.9889 3055.9165 L 4068.8887 3055.9019 L 4068.7885 3055.8872 L 4068.7164 3055.8618 L 4068.6443 3055.836 L 4068.595 3055.8351 L 4068.5456 3055.8342 L 4068.4969 3055.7662 L 4068.4481 3055.6981 L 4068.4349 3055.4126 L 4068.4217 3055.1265 L 4068.4018 3055.0518 L 4068.382 3054.9771 L 4068.3644 3054.6603 L 4068.3468 3054.3441 L 4068.3287 3054.2773 L 4068.3106 3054.2111 L 4068.2928 3053.8863 L 4068.2749 3053.5616 L 4068.2562 3053.5033 L 4068.2374 3053.4451 L 4068.2204 3053.1203 L 4068.2035 3052.7956 L 4068.1843 3052.7373 L 4068.1653 3052.6791 L 4068.1483 3052.3543 L 4068.1313 3052.0296 L 4068.1122 3051.9713 L 4068.0932 3051.9131 L 4068.0762 3051.5883 L 4068.0592 3051.2636 L 4068.0401 3051.2053 L 4068.021 3051.1471 L 4068.0036 3050.8223 L 4067.9862 3050.4976 L 4067.9677 3050.4309 L 4067.9493 3050.3642 L 4067.9322 3050.0564 L 4067.9151 3049.7481 L 4067.8876 3049.6667 L 4067.8601 3049.5848 L 4067.8601 3049.5248 L 4067.8601 3049.4647 L 4067.824 3049.4025 L 4067.788 3049.3402 L 4067.788 3049.3184 L 4067.788 3049.2966 L 4067.7437 3049.2414 L 4067.6995 3049.1858 L 4067.6441 3049.1547 L 4067.5888 3049.124 L 4067.5337 3049.124 L 4067.4786 3049.124 L 4067.3825 3049.1827 L 4067.2865 3049.2414 L 4067.2566 3049.2837 L 4067.2267 3049.3259 L 4067.1956 3049.3544 L 4067.1644 3049.3833 L 4067.0829 3049.5159 L 4067.0014 3049.6484 L 4065.6618 3052.1293 L 4064.3222 3054.6105 L 4064.2838 3054.6826 L 4064.2454 3054.7546 L 4064.2137 3054.7707 L 4064.182 3054.7867 L 4064.0695 3054.7711 L 4063.957 3054.7551 L 4063.8849 3054.7293 L 4063.8127 3054.7035 L 4063.7638 3054.703 L 4063.7149 3054.7022 L 4063.6234 3054.6688 L 4063.532 3054.6354 L 4063.4792 3054.6354 L 4063.4265 3054.6354 L 4063.335 3054.6021 L 4063.2435 3054.5687 L 4063.1908 3054.5687 L 4063.138 3054.5687 L 4063.0466 3054.5358 L 4062.9551 3054.5024 L 4062.9023 3054.5024 L 4062.8496 3054.5024 L 4062.7581 3054.4691 L 4062.6666 3054.4357 L 4062.6139 3054.4357 L 4062.5611 3054.4357 L 4062.4696 3054.4023 L 4062.3782 3054.369 L 4062.3254 3054.369 L 4062.2726 3054.369 L 4062.1812 3054.3356 L 4062.0897 3054.3023 L 4062.037 3054.3023 L 4061.9842 3054.3023 L 4061.8927 3054.2693 L 4061.8013 3054.236 L 4061.7434 3054.236 L 4061.6854 3054.2355 L 4061.6328 3054.2102 L 4061.5802 3054.1848 L 4061.4648 3054.1697 L 4061.3494 3054.155 L 4061.3267 3054.1372 L 4061.304 3054.1199 L 4061.1825 3054.1043 L 4061.061 3054.0883 L 4061.0379 3054.0705 L 4061.0147 3054.0527 L 4060.9264 3054.0429 L 4060.8381 3054.0331 L 4060.7536 3054.0011 L 4060.6692 3053.9695 L 4060.6146 3053.9695 L 4060.56 3053.9695 L 4060.4685 3053.9362 L 4060.377 3053.9028 L 4060.3166 3053.9028 L 4060.2561 3053.9028 L 4060.1775 3053.8699 L 4060.0989 3053.837 L 4060.041 3053.8365 L 4059.9831 3053.8361 L 4059.8916 3053.8027 L 4059.8001 3053.7698 L 4059.7474 3053.7698 L 4059.6947 3053.7698 L 4059.6032 3053.7364 L 4059.5117 3053.7031 L 4059.4589 3053.7031 L 4059.4062 3053.7031 L 4059.3147 3053.6697 L 4059.2233 3053.6363 L 4059.1705 3053.6363 L 4059.1177 3053.6363 L 4059.0263 3053.603 L 4058.9348 3053.5696 L 4058.8808 3053.5696 L 4058.8268 3053.5696 L 4058.7597 3053.5434 L 4058.6928 3053.5167 L 4058.5358 3053.5078 L 4058.3789 3053.4984 L 4057.9319 3053.091 L 4057.4849 3052.6835 L 4056.935 3052.1804 L 4056.3851 3051.6769 L 4056.2589 3051.6017 L 4056.1328 3051.5265 L 4056.0246 3051.4847 L 4055.9164 3051.4429 L 4055.7902 3051.4113 L 4055.664 3051.3802 L 4054.4445 3051.3753 L 4053.225 3051.3704 L 4052.5606 3050.7672 L 4051.8961 3050.164 L 4051.8159 3050.1062 L 4051.7356 3050.0479 L 4051.7046 3050.0314 L 4051.6736 3050.0145 L 4051.5611 3049.9607 L 4051.4486 3049.9064 L 4051.429 3049.9064 L 4051.4094 3049.906 L 4051.3571 3049.8811 L 4051.3048 3049.8557 L 4051.1768 3049.8295 L 4051.0488 3049.8037 L 4050.9587 3049.7868 L 4050.8685 3049.7699 L 4050.6071 3049.7774 L 4050.3457 3049.7854 L 4050.2195 3049.8135 L 4050.0933 3049.8419 L 4050.0392 3049.8557 L 4049.9851 3049.87 L 4049.922 3049.8904 L 4049.8589 3049.9104 L 4049.8049 3049.9318 L 4049.7507 3049.9536 L 4049.6156 3050.0145 L 4049.4803 3050.075 L 4049.4443 3050.0951 L 4049.4082 3050.1151 L 4049.3541 3050.1475 L 4049.3 3050.18 L 4049.1649 3050.2712 L 4049.0296 3050.3624 L 4048.8941 3050.4883 L 4048.7586 3050.6142 L 4048.6941 3050.6889 L 4048.6295 3050.7641 L 4048.5489 3050.8722 L 4048.4683 3050.9803 L 4048.3672 3051.172 L 4048.2661 3051.3633 L 4048.2453 3051.4384 L 4048.2246 3051.5132 L 4048.1956 3051.5883 L 4048.1666 3051.6631 L 4048.1654 3051.9963 L 4048.1643 3052.3294 L 4048.2075 3052.446 L 4048.2508 3052.5625 L 4048.3225 3052.6982 L 4048.3944 3052.8334 L 4048.3924 3052.97 L 4048.3905 3053.1066 L 4048.3555 3053.1759 L 4048.3205 3053.2449 L 4048.3097 3053.2702 L 4048.2989 3053.2952 L 4048.2496 3053.3646 L 4048.2003 3053.4344 L 4048.0969 3053.5727 L 4047.9935 3053.7115 L 4047.9392 3053.7827 L 4047.8849 3053.8539 L 4047.8849 3053.861 L 4047.8849 3053.8681 L 4047.8443 3053.9233 L 4047.8037 3053.9784 L 4047.7384 3054.103 L 4047.673 3054.2275 L 4047.6372 3054.3107 L 4047.6013 3054.3939 L 4047.5788 3054.4522 L 4047.5564 3054.5104 L 4047.5225 3054.6501 L 4047.4887 3054.7898 L 4047.4682 3054.8125 L 4047.4477 3054.8352 L 4047.4271 3054.8352 L 4047.4066 3054.8352 L 4047.1869 3054.6314 L 4046.9673 3054.4273 L 4046.8821 3054.2693 L 4046.797 3054.111 L 4046.7595 3054.0612 L 4046.722 3054.0118 L 4046.6301 3053.9032 L 4046.5382 3053.7947 L 4045.5619 3052.905 L 4044.5857 3052.0158 L 4044.5857 3051.9776 L 4044.5857 3051.9393 L 4044.6204 3051.922 L 4044.6551 3051.9046 L 4044.8442 3051.7672 L 4045.0331 3051.6297 L 4045.0753 3051.6012 L 4045.1175 3051.5732 L 4045.1536 3051.547 L 4045.1896 3051.5212 L 4045.3879 3051.3797 L 4045.5863 3051.2383 L 4045.7081 3051.1368 L 4045.83 3051.0354 L 4045.9515 3050.8828 L 4046.073 3050.7307 L 4046.0981 3050.6898 L 4046.1232 3050.6489 L 4046.167 3050.5732 L 4046.2109 3050.4976 L 4046.2382 3050.4309 L 4046.2655 3050.3642 L 4046.3095 3050.2227 L 4046.3536 3050.0813 L 4046.364 3049.8895 L 4046.3744 3049.6983 L 4046.3554 3049.6151 L 4046.3363 3049.5319 L 4046.3087 3049.442 L 4046.281 3049.3522 L 4046.2409 3049.2752 L 4046.2009 3049.1987 L 4046.1871 3049.1823 L 4046.1733 3049.1654 L 4046.0404 3049.0154 L 4045.9074 3048.8655 L 4045.81 3048.7837 L 4045.7125 3048.7018 L 4045.0174 3048.0675 L 4044.3222 3047.4336 L 4044.152 3047.2833 L 4043.9818 3047.1329 L 4043.9096 3047.0893 L 4043.8375 3047.0462 L 4043.7654 3047.011 L 4043.6933 3046.9759 L 4043.6122 3046.9443 L 4043.5311 3046.9127 L 4043.4359 3046.9012 L 4043.3408 3046.8892 L 4043.3155 3046.866 L 4043.2902 3046.8425 L 4043.1042 3046.8429 L 4042.9181 3046.8438 L 4042.8969 3046.866 M 4043.4084 3047.4772 L 4043.484 3047.5084 L 4043.5 3047.5084 L 4043.5159 3047.5084 L 4043.6283 3047.6027 L 4043.7408 3047.6965 L 4043.7874 3047.7815 L 4043.834 3047.8665 L 4043.8422 3048.0537 L 4043.8504 3048.2406 L 4043.8024 3048.3785 L 4043.7544 3048.5159 L 4043.691 3048.6227 L 4043.6275 3048.7299 L 4043.5184 3048.8531 L 4043.4093 3048.9763 L 4043.1727 3049.1502 L 4042.9361 3049.3242 L 4042.9001 3049.3495 L 4042.864 3049.3749 L 4042.8218 3049.4033 L 4042.7797 3049.4318 L 4042.639 3049.5319 L 4042.4983 3049.6315 L 4042.296 3049.7734 L 4042.0936 3049.9149 L 4041.9019 3050.0519 L 4041.7102 3050.1894 L 4041.6741 3050.2152 L 4041.6381 3050.241 L 4041.5959 3050.2694 L 4041.5538 3050.2979 L 4041.4131 3050.3975 L 4041.2724 3050.4976 L 4041.0704 3050.6391 L 4040.8683 3050.7805 L 4040.693 3050.9055 L 4040.5176 3051.0305 L 4040.4649 3051.067 L 4040.4122 3051.1039 L 4040.3761 3051.1297 L 4040.3401 3051.1555 L 4040.1932 3051.2596 L 4040.0465 3051.3633 L 4039.8443 3051.5052 L 4039.6421 3051.6466 L 4039.4953 3051.7503 L 4039.3485 3051.8544 L 4039.3124 3051.8802 L 4039.2764 3051.906 L 4039.2237 3051.9429 L 4039.171 3051.9794 L 4038.9956 3052.1043 L 4038.8203 3052.2293 L 4038.6182 3052.3708 L 4038.4162 3052.5123 L 4038.2694 3052.6163 L 4038.1226 3052.7204 L 4038.0865 3052.7462 L 4038.0505 3052.772 L 4037.9978 3052.8085 L 4037.9451 3052.8454 L 4037.7697 3052.9704 L 4037.5943 3053.095 L 4037.3923 3053.2369 L 4037.1903 3053.3783 L 4037.0496 3053.478 L 4036.9088 3053.5781 L 4036.8592 3053.6114 L 4036.8096 3053.6448 L 4036.7895 3053.6613 L 4036.7695 3053.6782 L 4036.715 3053.7133 L 4036.6606 3053.7489 L 4036.5713 3053.7903 L 4036.482 3053.8312 L 4036.3648 3053.857 L 4036.2477 3053.8832 L 4036.1666 3053.8948 L 4036.0854 3053.9064 L 4036.0174 3053.9411 L 4035.9494 3053.9762 L 4035.8957 3054.0531 L 4035.842 3054.1306 L 4035.842 3054.2044 L 4035.842 3054.2778 L 4035.8868 3054.3223 L 4035.9315 3054.3668 L 4036.0085 3054.377 L 4036.0854 3054.3872 L 4038.4306 3054.3823 L 4040.7758 3054.3774 L 4040.8495 3054.3303 L 4040.9231 3054.2831 L 4040.9711 3054.2164 L 4041.019 3054.1492 L 4041.0289 3054.0927 L 4041.0389 3054.0358 L 4040.9929 3053.9717 L 4040.9468 3053.9077 L 4040.8891 3053.897 L 4040.8313 3053.8863 L 4040.5947 3053.8859 L 4040.3581 3053.8854 L 4040.2319 3053.8548 L 4040.1057 3053.8245 L 4040.0336 3053.7858 L 4039.9615 3053.7476 L 4039.9009 3053.696 L 4039.8404 3053.6448 L 4039.7979 3053.5834 L 4039.7555 3053.5225 L 4039.7187 3053.4219 L 4039.682 3053.321 L 4039.682 3053.2066 L 4039.682 3053.0923 L 4039.7165 3052.9687 L 4039.7511 3052.8454 L 4039.8254 3052.7151 L 4039.8998 3052.5843 L 4039.9216 3052.5581 L 4039.9434 3052.5318 L 4040.1057 3052.3806 L 4040.2679 3052.2293 L 4040.304 3052.2089 L 4040.3401 3052.1884 L 4040.4031 3052.1506 L 4040.4662 3052.1128 L 4040.5474 3052.0772 L 4040.6285 3052.0416 L 4040.7457 3052.002 L 4040.8629 3051.9629 L 4042.0437 3051.9633 L 4043.2246 3051.9642 L 4043.3396 3052.0011 L 4043.4546 3052.0376 L 4043.4841 3052.0376 L 4043.5135 3052.0376 L 4043.5808 3052.071 L 4043.6481 3052.1043 L 4043.667 3052.1043 L 4043.686 3052.1043 L 4043.8337 3052.1831 L 4043.9815 3052.2618 L 4044.1182 3052.3873 L 4044.2548 3052.5123 L 4044.2986 3052.5705 L 4044.3423 3052.6284 L 4044.3637 3052.6617 L 4044.385 3052.6955 L 4044.43 3052.7787 L 4044.4749 3052.8619 L 4044.5145 3052.9704 L 4044.554 3053.0785 L 4044.579 3053.2618 L 4044.604 3053.4451 L 4044.5846 3053.6613 L 4044.5652 3053.8779 L 4044.5303 3053.9944 L 4044.4953 3054.111 L 4044.4667 3054.1857 L 4044.4381 3054.2609 L 4044.4284 3054.3085 L 4044.4188 3054.3561 L 4044.4436 3054.3708 L 4044.4685 3054.3854 L 4044.9372 3054.3859 L 4045.406 3054.3868 L 4045.5953 3054.4175 L 4045.7846 3054.4482 L 4045.9018 3054.4846 L 4046.0189 3054.5211 L 4046.1 3054.5563 L 4046.1812 3054.5914 L 4046.307 3054.6666 L 4046.4329 3054.7417 L 4046.5336 3054.8343 L 4046.6344 3054.9268 L 4046.7143 3055.0353 L 4046.7942 3055.1439 L 4046.8251 3055.2021 L 4046.856 3055.26 L 4046.885 3055.3347 L 4046.9139 3055.4099 L 4046.9294 3055.4597 L 4046.9448 3055.5095 L 4046.9731 3055.6434 L 4047.0015 3055.7769 L 4047.0015 3055.9205 L 4047.0015 3056.0642 L 4046.9653 3056.2595 L 4046.9292 3056.4548 L 4046.899 3056.5402 L 4046.8688 3056.6252 L 4046.8248 3056.7337 L 4046.7808 3056.8418 L 4046.7088 3056.9752 L 4046.637 3057.1082 L 4046.6067 3057.1581 L 4046.5765 3057.2083 L 4046.523 3057.2813 L 4046.4696 3057.3547 L 4046.4516 3057.3814 L 4046.4336 3057.4076 L 4046.3176 3057.5411 L 4046.2016 3057.6745 L 4046.0562 3057.8088 L 4045.9108 3057.9432 L 4045.7665 3058.0508 L 4045.6223 3058.1585 L 4045.509 3058.2288 L 4045.3959 3058.2991 L 4045.3882 3058.2991 L 4045.3805 3058.2991 L 4045.3207 3058.3364 L 4045.2609 3058.3738 L 4045.1171 3058.4378 L 4044.9733 3058.5019 L 4044.9066 3058.5335 L 4044.84 3058.5655 L 4044.8165 3058.5655 L 4044.793 3058.5655 L 4044.7433 3058.5895 L 4044.6936 3058.6135 L 4044.5901 3058.6393 L 4044.4865 3058.6651 L 4044.4144 3058.6812 L 4044.3423 3058.6976 L 4044.1711 3058.727 L 4043.9998 3058.7568 L 4042.9632 3058.7568 L 4041.9265 3058.7568 L 4041.806 3058.7203 L 4041.6854 3058.6834 L 4041.6138 3058.642 L 4041.5423 3058.6002 L 4041.4785 3058.5393 L 4041.4147 3058.4788 L 4041.3704 3058.4005 L 4041.3262 3058.3226 L 4041.303 3058.195 L 4041.2798 3058.0673 L 4041.3034 3057.929 L 4041.3272 3057.7911 L 4041.3613 3057.7159 L 4041.3954 3057.6411 L 4041.4428 3057.558 L 4041.4902 3057.4748 L 4041.5856 3057.3645 L 4041.6809 3057.2541 L 4041.7767 3057.1794 L 4041.8725 3057.1047 L 4041.9626 3057.0473 L 4042.0527 3056.9904 L 4042.1519 3056.9472 L 4042.2511 3056.9045 L 4042.3682 3056.8698 L 4042.4854 3056.8351 L 4042.8099 3056.8284 L 4043.1344 3056.8218 L 4043.2096 3056.7862 L 4043.2848 3056.7506 L 4043.3493 3056.6781 L 4043.4139 3056.6051 L 4043.4139 3056.5037 L 4043.4139 3056.4019 L 4043.3466 3056.3596 L 4043.2793 3056.3173 L 4039.1205 3056.3173 L 4034.9616 3056.3173 L 4034.8745 3056.3516 L 4034.7874 3056.3863 L 4034.7459 3056.4219 L 4034.7044 3056.4579 L 4034.6693 3056.5313 L 4034.6341 3056.6047 L 4034.6342 3056.6398 L 4034.6343 3056.6754 L 4034.6693 3056.7284 L 4034.7043 3056.7813 L 4034.7458 3056.8035 L 4034.7874 3056.8253 L 4035.7429 3056.8338 L 4036.6984 3056.8418 L 4036.8037 3056.8881 L 4036.9091 3056.9343 L 4037.006 3057.0242 L 4037.103 3057.1136 L 4037.1512 3057.2106 L 4037.1995 3057.308 L 4037.2079 3057.469 L 4037.2163 3057.6305 L 4037.1667 3057.7742 L 4037.1172 3057.9174 L 4037.0874 3057.9708 L 4037.0576 3058.0241 L 4037.0227 3058.074 L 4036.988 3058.1238 L 4036.9084 3058.2154 L 4036.8289 3058.3071 L 4036.7346 3058.3862 L 4036.6402 3058.4654 L 4036.5706 3058.509 L 4036.501 3058.5526 L 4036.3696 3058.6162 L 4036.2382 3058.6798 L 4036.0807 3058.7167 L 4035.9231 3058.7532 L 4035.5626 3058.7661 L 4035.202 3058.7786 L 4035.1029 3058.8124 L 4035.0037 3058.8462 L 4034.8811 3058.9054 L 4034.7584 3058.9645 L 4034.6918 3059.0103 L 4034.6251 3059.0557 L 4034.4981 3059.1727 L 4034.3711 3059.2897 L 4034.3133 3059.3698 L 4034.2556 3059.4494 L 4034.2556 3059.4561 L 4034.2556 3059.4632 L 4034.2102 3059.5263 L 4034.1649 3059.5895 L 4034.1336 3059.6309 L 4034.1023 3059.6722 L 4033.9581 3059.807 L 4033.8139 3059.9418 L 4033.6958 3060.0152 L 4033.5778 3060.089 L 4033.5426 3060.1073 L 4033.5074 3060.1255 L 4033.4713 3060.1433 L 4033.4353 3060.1611 L 4033.3581 3060.1958 L 4033.2809 3060.2305 L 4033.2589 3060.2305 L 4033.237 3060.2305 L 4033.1847 3060.2559 L 4033.1324 3060.2812 L 4033.0044 3060.307 L 4032.8764 3060.3333 L 4032.8043 3060.3479 L 4032.7322 3060.3622 L 4032.5506 3060.3631 L 4032.369 3060.3635 L 4032.2247 3060.3239 L 4032.0804 3060.2839 L 4031.9841 3060.239 L 4031.8879 3060.1936 L 4031.7944 3060.1073 L 4031.7008 3060.021 L 4031.6531 3059.9512 L 4031.6053 3059.8813 L 4031.5585 3059.7688 L 4031.5117 3059.6558 L 4031.512 3059.4311 L 4031.5123 3059.2065 L 4031.5575 3059.0815 L 4031.6027 3058.9565 L 4031.6491 3058.8649 L 4031.6955 3058.7732 L 4031.7176 3058.7403 L 4031.7397 3058.707 L 4031.7852 3058.6402 L 4031.8307 3058.5735 L 4031.844 3058.5571 L 4031.8572 3058.5402 L 4031.9683 3058.4196 L 4032.0794 3058.2991 L 4032.0929 3058.2991 L 4032.1064 3058.2991 L 4032.3027 3058.1198 L 4032.4991 3057.941 L 4032.5832 3057.8244 L 4032.6671 3057.7079 L 4032.7313 3057.5775 L 4032.7955 3057.4472 L 4032.8314 3057.2951 L 4032.8674 3057.1429 L 4032.8673 3057.0424 L 4032.8671 3056.9419 L 4032.8495 3056.8004 L 4032.8319 3056.6585 L 4032.8132 3056.2591 L 4032.7946 3055.8596 L 4032.7761 3055.7204 L 4032.7578 3055.5816 L 4032.7577 3055.3792 L 4032.7577 3055.1768 L 4032.7853 3055.0852 L 4032.8128 3054.9935 L 4032.8137 3054.9517 L 4032.8145 3054.9103 L 4032.8493 3054.8436 L 4032.8842 3054.7769 L 4032.8848 3054.7551 L 4032.8854 3054.7328 L 4032.9673 3054.5807 L 4033.0491 3054.4286 L 4033.0754 3054.4015 L 4033.1017 3054.3748 L 4033.1017 3054.3641 L 4033.1017 3054.3534 L 4033.2222 3054.2071 L 4033.3426 3054.0612 L 4033.452 3053.9606 L 4033.5614 3053.8605 L 4033.6168 3053.8192 L 4033.6722 3053.7778 L 4033.7319 3053.7364 L 4033.7916 3053.6946 L 4033.8241 3053.6688 L 4033.8566 3053.6426 L 4033.9044 3053.6105 L 4033.9522 3053.5781 L 4034.0929 3053.478 L 4034.2336 3053.3783 L 4034.4359 3053.2369 L 4034.638 3053.095 L 4034.7848 3052.9913 L 4034.9316 3052.8872 L 4034.9677 3052.8614 L 4035.0037 3052.8356 L 4035.0564 3052.7992 L 4035.1092 3052.7623 L 4035.2845 3052.6373 L 4035.4598 3052.5123 L 4035.6619 3052.3708 L 4035.8639 3052.2293 L 4036.0107 3052.1253 L 4036.1575 3052.0216 L 4036.1936 3051.9958 L 4036.2296 3051.97 L 4036.2823 3051.9331 L 4036.335 3051.8962 L 4036.5104 3051.7716 L 4036.6858 3051.6466 L 4036.8878 3051.5052 L 4037.0898 3051.3633 L 4037.2367 3051.2596 L 4037.3834 3051.1555 L 4037.4195 3051.1297 L 4037.4555 3051.1039 L 4037.4983 3051.0755 L 4037.541 3051.047 L 4037.6335 3050.9789 L 4037.726 3050.9104 L 4037.9243 3050.7716 L 4038.1226 3050.6329 L 4038.3358 3050.4821 L 4038.549 3050.3308 L 4038.5898 3050.3059 L 4038.6306 3050.281 L 4038.6921 3050.2356 L 4038.7535 3050.1898 L 4038.8978 3050.0848 L 4039.042 3049.9798 L 4039.2196 3049.8557 L 4039.3971 3049.7316 L 4039.4837 3049.6734 L 4039.5703 3049.6151 L 4039.7479 3049.491 L 4039.9254 3049.3664 L 4040.0697 3049.2619 L 4040.2138 3049.1569 L 4040.2343 3049.1413 L 4040.2547 3049.1262 L 4040.5588 3048.9136 L 4040.8629 3048.7005 L 4041.0522 3048.5684 L 4041.2415 3048.4358 L 4041.3346 3048.3678 L 4041.4277 3048.2997 L 4041.4698 3048.2695 L 4041.5119 3048.2397 L 4041.5547 3048.2112 L 4041.5975 3048.1832 L 4041.6449 3048.148 L 4041.6922 3048.1124 L 4041.8905 3047.9737 L 4042.0888 3047.8353 L 4042.224 3047.7406 L 4042.3592 3047.6458 L 4042.4779 3047.5867 L 4042.5966 3047.5275 L 4042.7123 3047.4901 L 4042.8279 3047.4523 L 4042.9361 3047.4412 L 4043.0443 3047.4296 L 4043.1885 3047.4376 L 4043.3328 3047.4461 L 4043.4084 3047.4772 M 4050.9496 3050.3624 L 4051.1029 3050.3855 L 4051.175 3050.4144 L 4051.2471 3050.4434 L 4051.2831 3050.4607 L 4051.3192 3050.4785 L 4051.3561 3050.4963 L 4051.3928 3050.5141 L 4051.4677 3050.5688 L 4051.5426 3050.624 L 4051.6078 3050.7058 L 4051.673 3050.7881 L 4051.7188 3050.8926 L 4051.7646 3050.9972 L 4051.7782 3051.2387 L 4051.7918 3051.4798 L 4051.8213 3051.5301 L 4051.8508 3051.5799 L 4051.8509 3051.5972 L 4051.851 3051.615 L 4051.9413 3051.7085 L 4052.0316 3051.8019 L 4052.1171 3051.8472 L 4052.2026 3051.8922 L 4052.3108 3051.9144 L 4052.419 3051.9366 L 4053.8921 3051.9375 L 4055.3652 3051.938 L 4055.5506 3051.9567 L 4055.7361 3051.9749 L 4055.8372 3052.0221 L 4055.9384 3052.0692 L 4056.0091 3052.1328 L 4056.0797 3052.196 L 4056.1215 3052.2623 L 4056.1633 3052.3281 L 4056.1973 3052.4286 L 4056.2314 3052.5292 L 4056.2317 3052.6221 L 4056.2319 3052.7151 L 4056.1975 3052.8397 L 4056.163 3052.9638 L 4056.1071 3053.0732 L 4056.0512 3053.1826 L 4055.9651 3053.2889 L 4055.879 3053.3948 L 4055.8338 3053.4366 L 4055.7885 3053.478 L 4055.6902 3053.5541 L 4055.5919 3053.6301 L 4055.5378 3053.6617 L 4055.4837 3053.6933 L 4055.4207 3053.724 L 4055.3575 3053.7547 L 4055.2494 3053.7938 L 4055.1412 3053.833 L 4055.0781 3053.8454 L 4055.015 3053.8574 L 4053.3474 3053.8694 L 4051.6798 3053.881 L 4051.6294 3053.8939 L 4051.5789 3053.9068 L 4051.5013 3053.9789 L 4051.4238 3054.0505 L 4051.4011 3054.1252 L 4051.3785 3054.1995 L 4051.4 3054.26 L 4051.4216 3054.3205 L 4051.4688 3054.349 L 4051.5159 3054.3774 L 4055.6091 3054.3823 L 4059.7023 3054.3868 L 4059.8802 3054.4201 L 4060.0582 3054.4539 L 4060.1958 3054.514 L 4060.3333 3054.5736 L 4060.4347 3054.6514 L 4060.5361 3054.7293 L 4060.5879 3054.7867 L 4060.6398 3054.8436 L 4060.6759 3054.8939 L 4060.7119 3054.9437 L 4060.7506 3055.0184 L 4060.7894 3055.0936 L 4060.8275 3055.2102 L 4060.8657 3055.3267 L 4060.8654 3055.554 L 4060.8652 3055.7813 L 4060.8293 3055.8872 L 4060.7935 3055.9926 L 4060.7933 3056.0211 L 4060.793 3056.05 L 4060.7547 3056.1296 L 4060.7164 3056.2092 L 4060.6375 3056.3551 L 4060.5586 3056.501 L 4060.5141 3056.5633 L 4060.4697 3056.6252 L 4060.3691 3056.7586 L 4060.2686 3056.8916 L 4060.2392 3056.9334 L 4060.2098 3056.9752 L 4060.152 3057.0584 L 4060.0941 3057.1416 L 4060.0628 3057.2083 L 4060.0315 3057.2746 L 4059.9869 3057.3831 L 4059.9423 3057.4912 L 4059.9328 3057.7043 L 4059.9234 3057.9174 L 4059.9634 3058.0268 L 4060.0035 3058.1367 L 4060.0659 3058.247 L 4060.1282 3058.3573 L 4060.1541 3058.4819 L 4060.18 3058.6069 L 4060.1798 3058.6901 L 4060.1794 3058.7732 L 4060.1542 3058.9151 L 4060.1289 3059.0566 L 4060.1005 3059.1064 L 4060.0721 3059.1562 L 4060.072 3059.1763 L 4060.0719 3059.1963 L 4060 3059.3226 L 4059.9282 3059.4485 L 4059.8875 3059.5023 L 4059.8469 3059.5561 L 4059.767 3059.6478 L 4059.6872 3059.7394 L 4059.5595 3059.8515 L 4059.4319 3059.9641 L 4059.4196 3059.9641 L 4059.4074 3059.9641 L 4059.3836 3059.985 L 4059.3598 3060.0059 L 4059.2877 3060.049 L 4059.2156 3060.0917 L 4059.1615 3060.1233 L 4059.1074 3060.1544 L 4059.0443 3060.1851 L 4058.9812 3060.2158 L 4058.9091 3060.2416 L 4058.837 3060.267 L 4058.7108 3060.2999 L 4058.5846 3060.3328 L 4058.5125 3060.3475 L 4058.4403 3060.3622 L 4058.2691 3060.3622 L 4058.0978 3060.3622 L 4058.0257 3060.3475 L 4057.9536 3060.3328 L 4057.8725 3060.3137 L 4057.7913 3060.2946 L 4057.6404 3060.2252 L 4057.4895 3060.1558 L 4057.3904 3060.0566 L 4057.2913 3059.9578 L 4057.2378 3059.8511 L 4057.1842 3059.7443 L 4057.1749 3059.5504 L 4057.1655 3059.3564 L 4057.1332 3059.239 L 4057.1009 3059.1215 L 4057.044 3059.0437 L 4056.987 3058.9654 L 4056.9114 3058.9089 L 4056.8358 3058.852 L 4056.7237 3058.8084 L 4056.6116 3058.7652 L 4052.0544 3058.7639 L 4047.4972 3058.7621 L 4047.3981 3058.7488 L 4047.2989 3058.7354 L 4047.2088 3058.711 L 4047.1186 3058.6869 L 4047.0334 3058.6336 L 4046.9481 3058.5802 L 4046.8863 3058.5103 L 4046.8246 3058.4405 L 4046.7761 3058.3422 L 4046.7276 3058.2439 L 4046.735 3058.0344 L 4046.7425 3057.8244 L 4046.7727 3057.7742 L 4046.803 3057.7243 L 4046.8031 3057.7043 L 4046.8032 3057.6843 L 4046.8474 3057.6078 L 4046.8915 3057.5308 L 4046.9675 3057.4276 L 4047.0435 3057.3249 L 4047.153 3057.227 L 4047.2626 3057.1291 L 4047.3799 3057.0589 L 4047.4972 3056.9881 L 4047.5603 3056.9579 L 4047.6234 3056.9276 L 4047.7406 3056.8849 L 4047.8578 3056.8427 L 4052.5451 3056.8338 L 4057.2325 3056.8253 L 4057.3141 3056.7884 L 4057.3957 3056.7519 L 4057.4339 3056.7137 L 4057.472 3056.6754 L 4057.51 3056.6091 L 4057.5479 3056.5424 L 4057.5479 3056.4948 L 4057.5479 3056.4468 L 4057.4797 3056.3836 L 4057.4114 3056.3204 L 4053.2656 3056.3133 L 4049.1198 3056.3062 L 4048.9846 3056.2684 L 4048.8493 3056.2306 L 4048.698 3056.1616 L 4048.5466 3056.0927 L 4048.4276 3055.9828 L 4048.3085 3055.8729 L 4048.2845 3055.8445 L 4048.2606 3055.8165 L 4048.1892 3055.6848 L 4048.1179 3055.5531 L 4048.0915 3055.4148 L 4048.0652 3055.2764 L 4048.0652 3055.1639 L 4048.0652 3055.0518 L 4048.0924 3054.8841 L 4048.1197 3054.7164 L 4048.1465 3054.6683 L 4048.1733 3054.6203 L 4048.1733 3054.595 L 4048.1733 3054.5696 L 4048.2576 3054.4068 L 4048.342 3054.244 L 4048.3974 3054.1684 L 4048.4527 3054.0927 L 4048.4707 3054.0665 L 4048.4888 3054.0398 L 4048.5603 3053.9424 L 4048.6317 3053.8445 L 4048.6415 3053.8361 L 4048.6511 3053.8281 L 4048.7035 3053.7529 L 4048.7558 3053.6782 L 4048.7849 3053.6363 L 4048.814 3053.595 L 4048.8648 3053.4949 L 4048.9157 3053.3948 L 4048.9324 3053.3654 L 4048.9492 3053.3361 L 4048.9788 3053.2075 L 4049.0083 3053.0785 L 4049.0156 3052.9789 L 4049.0229 3052.8788 L 4048.9868 3052.7373 L 4048.9508 3052.5959 L 4048.8964 3052.5016 L 4048.842 3052.4077 L 4048.8023 3052.3019 L 4048.7625 3052.196 L 4048.7543 3052.0452 L 4048.7462 3051.8939 L 4048.7939 3051.7231 L 4048.8416 3051.5528 L 4048.857 3051.5247 L 4048.8725 3051.4967 L 4048.9306 3051.3886 L 4048.9887 3051.2801 L 4049.0723 3051.1644 L 4049.1559 3051.0488 L 4049.311 3050.9038 L 4049.4662 3050.7592 L 4049.5364 3050.7156 L 4049.6066 3050.6724 L 4049.6781 3050.6284 L 4049.7497 3050.5839 L 4049.9033 3050.5119 L 4050.0569 3050.4394 L 4050.0805 3050.4394 L 4050.1041 3050.4394 L 4050.1596 3050.4127 L 4050.2151 3050.3864 L 4050.3525 3050.3646 L 4050.4899 3050.3433 L 4050.6431 3050.3415 L 4050.7964 3050.3397 L 4050.9496 3050.3624 M 4040.8315 3058.6829 L 4040.8809 3058.7506 L 4040.9639 3058.8453 L 4041.047 3058.9401 L 4041.631 3059.4747 L 4042.215 3060.0094 L 4042.6252 3060.3809 L 4043.0353 3060.7527 L 4043.1299 3060.8128 L 4043.2246 3060.8733 L 4043.3147 3060.9133 L 4043.4048 3060.9538 L 4043.5221 3060.9947 L 4043.6392 3061.0356 L 4044.7137 3061.0423 L 4045.7882 3061.0485 L 4046.0117 3061.0321 L 4046.2353 3061.0152 L 4046.3615 3060.9876 L 4046.4877 3060.96 L 4046.6139 3060.9262 L 4046.74 3060.8929 L 4046.8392 3060.8599 L 4046.9384 3060.8275 L 4047.0285 3060.7932 L 4047.1186 3060.759 L 4047.2809 3060.6842 L 4047.4432 3060.6099 L 4047.5693 3060.541 L 4047.6956 3060.472 L 4047.7496 3060.4391 L 4047.8037 3060.4062 L 4047.8127 3060.3973 L 4047.8217 3060.3889 L 4047.8796 3060.3511 L 4047.9375 3060.3137 L 4047.9608 3060.3141 L 4047.984 3060.3146 L 4048.2018 3060.5099 L 4048.4197 3060.7051 L 4048.4835 3060.7576 L 4048.5473 3060.8101 L 4048.5992 3060.8373 L 4048.651 3060.8644 L 4048.7322 3060.9066 L 4048.8133 3060.9489 L 4048.9485 3060.9934 L 4049.0837 3061.0379 L 4053.3413 3061.0423 L 4057.599 3061.0472 L 4058.1804 3061.577 L 4058.7617 3062.1072 L 4058.7503 3062.1348 L 4058.7389 3062.162 L 4058.7068 3062.162 L 4058.6747 3062.1624 L 4058.6206 3062.1953 L 4058.5665 3062.2287 L 4058.5392 3062.2287 L 4058.5119 3062.2287 L 4058.4447 3062.262 L 4058.3774 3062.2954 L 4058.3458 3062.2954 L 4058.3142 3062.2954 L 4058.2601 3062.3288 L 4058.206 3062.3617 L 4058.1719 3062.3617 L 4058.1378 3062.3617 L 4058.0638 3062.3928 L 4057.9896 3062.4235 L 4057.8995 3062.4524 L 4057.8094 3062.4809 L 4057.7372 3062.4951 L 4057.6651 3062.5094 L 4057.6111 3062.5352 L 4057.5569 3062.5614 L 4057.5119 3062.5619 L 4057.4668 3062.5619 L 4057.4128 3062.5881 L 4057.3586 3062.6143 L 4057.2644 3062.6304 L 4057.1703 3062.6464 L 4057.1203 3062.6704 L 4057.0702 3062.6949 L 4057.0071 3062.6953 L 4056.944 3062.6958 L 4056.8654 3062.7287 L 4056.7868 3062.7616 L 4056.7354 3062.7616 L 4056.684 3062.7616 L 4056.5925 3062.795 L 4056.501 3062.8283 L 4056.4302 3062.8283 L 4056.3594 3062.8283 L 4056.2732 3062.859 L 4056.1868 3062.8901 L 4056.078 3062.8999 L 4055.9691 3062.9102 L 4055.9028 3062.9355 L 4055.8364 3062.9613 L 4055.748 3062.9613 L 4055.6597 3062.9613 L 4055.5468 3062.9947 L 4055.434 3063.028 L 4055.3494 3063.028 L 4055.2649 3063.028 L 4055.131 3063.061 L 4054.997 3063.0939 L 4054.9063 3063.0943 L 4054.8155 3063.0943 L 4054.717 3063.1197 L 4054.6184 3063.145 L 4054.3928 3063.1602 L 4054.1673 3063.1757 L 4054.1134 3063.1949 L 4054.0595 3063.2144 L 4053.7981 3063.2291 L 4053.5367 3063.2438 L 4053.4736 3063.262 L 4053.4105 3063.2798 L 4053.077 3063.2949 L 4052.7434 3063.3105 L 4052.6533 3063.3274 L 4052.5631 3063.3448 L 4052.0674 3063.3603 L 4051.5716 3063.3763 L 4051.3823 3063.3977 L 4051.193 3063.419 L 4049.5795 3063.419 L 4047.966 3063.419 L 4047.7586 3063.3977 L 4047.5513 3063.3763 L 4046.9654 3063.3603 L 4046.3795 3063.3443 L 4046.2803 3063.3274 L 4046.1812 3063.3105 L 4045.7575 3063.2945 L 4045.3339 3063.2785 L 4045.2567 3063.2616 L 4045.1795 3063.2438 L 4044.824 3063.2278 L 4044.4685 3063.2118 L 4044.3964 3063.1949 L 4044.3243 3063.1775 L 4044.0178 3063.1619 L 4043.7113 3063.1464 L 4043.6482 3063.1286 L 4043.5851 3063.1108 L 4043.3057 3063.0952 L 4043.0262 3063.0796 L 4042.9632 3063.0618 L 4042.9001 3063.0441 L 4042.6476 3063.028 L 4042.3953 3063.0125 L 4042.3322 3062.9951 L 4042.2691 3062.9778 L 4042.0337 3062.9622 L 4041.7983 3062.9462 L 4041.7452 3062.9275 L 4041.6922 3062.9088 L 4041.4758 3062.8937 L 4041.2595 3062.8786 L 4041.1423 3062.8537 L 4041.0251 3062.8288 L 4040.9162 3062.8283 L 4040.8074 3062.8283 L 4040.6999 3062.8021 L 4040.5925 3062.7758 L 4040.4122 3062.762 L 4040.2319 3062.7482 L 4040.1802 3062.7296 L 4040.1285 3062.7109 L 4039.9239 3062.6953 L 4039.7194 3062.6802 L 4039.6818 3062.6615 L 4039.6442 3062.6428 L 4039.4603 3062.6277 L 4039.2764 3062.6126 L 4039.1778 3062.5872 L 4039.0792 3062.5619 L 4038.9885 3062.5614 L 4038.8978 3062.561 L 4038.7638 3062.5281 L 4038.6298 3062.4951 L 4038.5475 3062.4947 L 4038.4651 3062.4942 L 4038.3311 3062.4613 L 4038.1971 3062.4284 L 4038.1058 3062.428 L 4038.0144 3062.4271 L 4037.9423 3062.4026 L 4037.8702 3062.3781 L 4037.708 3062.3621 L 4037.5457 3062.3466 L 4037.4736 3062.3217 L 4037.4014 3062.2967 L 4037.3074 3062.2959 L 4037.2134 3062.2954 L 4037.13 3062.2692 L 4037.0466 3062.2429 L 4036.8995 3062.2278 L 4036.7524 3062.2131 L 4036.6803 3062.1882 L 4036.6082 3062.1633 L 4036.5256 3062.1628 L 4036.443 3062.162 L 4036.3273 3062.1286 L 4036.2116 3062.0948 L 4036.1871 3062.0806 L 4036.1625 3062.0663 L 4036.2472 3061.9943 L 4036.3319 3061.9222 L 4036.4475 3061.7941 L 4036.5631 3061.666 L 4036.5631 3061.6571 L 4036.5631 3061.6477 L 4036.6744 3061.4956 L 4036.7856 3061.3439 L 4036.8953 3061.2536 L 4037.0048 3061.1633 L 4037.0215 3061.1629 L 4037.0381 3061.1629 L 4037.0665 3061.1397 L 4037.095 3061.1162 L 4037.2212 3061.0828 L 4037.3474 3061.0499 L 4037.6899 3061.041 L 4038.0324 3061.0321 L 4038.1587 3060.9956 L 4038.2848 3060.9591 L 4038.375 3060.9258 L 4038.4651 3060.8924 L 4038.5553 3060.8515 L 4038.6454 3060.8101 L 4038.7085 3060.7754 L 4038.7716 3060.7403 L 4038.9068 3060.6455 L 4039.042 3060.5512 L 4039.1531 3060.4449 L 4039.2641 3060.3386 L 4039.3514 3060.2305 L 4039.4387 3060.1224 L 4039.4613 3060.0806 L 4039.4838 3060.0388 L 4039.5366 3059.9556 L 4039.5895 3059.8724 L 4039.5908 3059.8475 L 4039.5921 3059.8226 L 4039.6187 3059.7754 L 4039.6453 3059.7283 L 4039.6831 3059.5837 L 4039.7208 3059.4396 L 4039.7307 3059.3146 L 4039.7405 3059.1896 L 4039.7206 3059.0815 L 4039.7007 3058.9734 L 4039.6802 3058.8982 L 4039.6597 3058.8235 L 4039.623 3058.7448 L 4039.5864 3058.6665 L 4039.6093 3058.6407 L 4039.6324 3058.6153 L 4040.2072 3058.6153 L 4040.7821 3058.6153 L 4040.8315 3058.6829" stroke="none" layerid="1" id="gge901"></path><g c_partid="part_pad" c_etype="pinpart" c_origin="4075.319,3050.575" layerid="11" number="1" net="U1_7" plated ="Y"  id="gge21" locked="0" c_rotation="0" c_width="5.118" c_height="5.118" title="U1_7" c_shape="ELLIPSE" pasteexpansion="0" solderexpansion="0.2"><ellipse c_etype="pad_shell" cx="4075.319" cy="3050.575" rx="2.559" ry="2.559" layerid="11" stroke-width="0"/><polyline c_etype="pad_hole" points="4075.309 3050.575 4075.329 3050.575" layerid="11" stroke-width="3.15"></polyline></g><g c_partid="part_pad" c_etype="pinpart" c_origin="4059,3088.705" layerid="11" number="1" net="+5V" plated ="Y"  id="gge66" locked="0" c_rotation="270" c_width="4.7244" c_height="4.7244" title="+5V" c_shape="RECT" pasteexpansion="0" solderexpansion="0.4"><polygon  c_etype="pad_shell" points="4061.36 3086.3448 4061.36 3091.0648 4056.64 3091.0648 4056.64 3086.3448" layerid="11" stroke-width="0" /><circle c_etype="pad_hole" cx="4059" cy="3088.7044" r="1.378" layerid="11" stroke-width="0"/></g><g c_partid="part_pad" c_etype="pinpart" c_origin="4059,3114.295" layerid="11" number="2" net="BUZZER1_2" plated ="Y"  id="gge81" locked="0" c_rotation="270" c_width="4.7244" c_height="4.7244" title="BUZZER1_2" c_shape="ELLIPSE" pasteexpansion="0" solderexpansion="0.4"><ellipse c_etype="pad_shell" cx="4059" cy="3114.295" rx="2.3622" ry="2.3622" layerid="11" stroke-width="0"/><circle c_etype="pad_hole" cx="4059" cy="3114.2954" r="1.378" layerid="11" stroke-width="0"/></g><g c_partid="part_pad" c_etype="pinpart" c_origin="4148.5,3054" layerid="11" number="1" net="LED1_1" plated ="Y"  id="gge138" locked="0" c_rotation="90" c_width="6.5" c_height="6.5" title="LED1_1" c_shape="ELLIPSE" pasteexpansion="0" solderexpansion="0.2"><ellipse c_etype="pad_shell" cx="4148.5" cy="3054" rx="3.25" ry="3.25" layerid="11" stroke-width="0"/><circle c_etype="pad_hole" cx="4148.5" cy="3054" r="1.7717" layerid="11" stroke-width="0"/></g><g c_partid="part_pad" c_etype="pinpart" c_origin="4148.5,3064" layerid="11" number="2" net="GND" plated ="Y"  id="gge153" locked="0" c_rotation="90" c_width="6.5" c_height="6.5" title="GND" c_shape="ELLIPSE" pasteexpansion="0" solderexpansion="0.2"><ellipse c_etype="pad_shell" cx="4148.5" cy="3064" rx="3.25" ry="3.25" layerid="11" stroke-width="0"/><circle c_etype="pad_hole" cx="4148.5" cy="3064" r="1.7717" layerid="11" stroke-width="0"/></g><g c_partid="part_pad" c_etype="pinpart" c_origin="4132,3136" layerid="11" number="3" net="GND" plated ="Y"  id="gge216" locked="0" c_rotation="0" c_width="4.1339" c_height="6.2992" title="GND" c_shape="OVAL" pasteexpansion="0" solderexpansion="0.2"><polyline  c_etype="pad_shell" points="4132 3134.9174 4132 3137.0827" layerid="11" stroke-width="4.1339" /><circle c_etype="pad_hole" cx="4132" cy="3136.0001" r="1.4764" layerid="11" stroke-width="0"/></g><g c_partid="part_pad" c_etype="pinpart" c_origin="4127,3136" layerid="11" number="2" net="Q1_2" plated ="Y"  id="gge231" locked="0" c_rotation="0" c_width="4.1339" c_height="6.2992" title="Q1_2" c_shape="OVAL" pasteexpansion="0" solderexpansion="0.2"><polyline  c_etype="pad_shell" points="4127 3134.9174 4127 3137.0827" layerid="11" stroke-width="4.1339" /><circle c_etype="pad_hole" cx="4127" cy="3136.0001" r="1.4764" layerid="11" stroke-width="0"/></g><g c_partid="part_pad" c_etype="pinpart" c_origin="4122,3136" layerid="11" number="1" net="Q1_1" plated ="Y"  id="gge246" locked="0" c_rotation="0" c_width="4.1339" c_height="6.2992" title="Q1_1" c_shape="RECT" pasteexpansion="0" solderexpansion="0.2"><polygon  c_etype="pad_shell" points="4119.9331 3132.8504 4124.0669 3132.8504 4124.0669 3139.1496 4119.9331 3139.1496" layerid="11" stroke-width="0" /><circle c_etype="pad_hole" cx="4122" cy="3136.0001" r="1.4764" layerid="11" stroke-width="0"/></g><g c_partid="part_pad" c_etype="pinpart" c_origin="4169.5,3055" layerid="11" number="1" net="LED1_1" plated ="Y"  id="gge321" locked="0" c_rotation="270" c_width="7.4" c_height="7.4" title="LED1_1" c_shape="ELLIPSE" pasteexpansion="0" solderexpansion="0.2"><ellipse c_etype="pad_shell" cx="4169.5" cy="3055" rx="3.7" ry="3.7" layerid="11" stroke-width="0"/><circle c_etype="pad_hole" cx="4169.5" cy="3055" r="1.77" layerid="11" stroke-width="0"/></g><g c_partid="part_pad" c_etype="pinpart" c_origin="4169.5,3085" layerid="11" number="2" net="U1_3" plated ="Y"  id="gge336" locked="0" c_rotation="270" c_width="7.4" c_height="7.4" title="U1_3" c_shape="ELLIPSE" pasteexpansion="0" solderexpansion="0.2"><ellipse c_etype="pad_shell" cx="4169.5" cy="3085" rx="3.7" ry="3.7" layerid="11" stroke-width="0"/><circle c_etype="pad_hole" cx="4169.5" cy="3085" r="1.77" layerid="11" stroke-width="0"/></g><g c_partid="part_pad" c_etype="pinpart" c_origin="4170,3132.5" layerid="11" number="1" net="Q1_2" plated ="Y"  id="gge411" locked="0" c_rotation="90" c_width="7.4" c_height="7.4" title="Q1_2" c_shape="ELLIPSE" pasteexpansion="0" solderexpansion="0.2"><ellipse c_etype="pad_shell" cx="4170" cy="3132.5" rx="3.7" ry="3.7" layerid="11" stroke-width="0"/><circle c_etype="pad_hole" cx="4170" cy="3132.5" r="1.77" layerid="11" stroke-width="0"/></g><g c_partid="part_pad" c_etype="pinpart" c_origin="4170,3102.5" layerid="11" number="2" net="U1_2" plated ="Y"  id="gge426" locked="0" c_rotation="90" c_width="7.4" c_height="7.4" title="U1_2" c_shape="ELLIPSE" pasteexpansion="0" solderexpansion="0.2"><ellipse c_etype="pad_shell" cx="4170" cy="3102.5" rx="3.7" ry="3.7" layerid="11" stroke-width="0"/><circle c_etype="pad_hole" cx="4170" cy="3102.5" r="1.77" layerid="11" stroke-width="0"/></g><g c_partid="part_pad" c_etype="pinpart" c_origin="4078.5,3140" layerid="11" number="1" net="BUZZER1_2" plated ="Y"  id="gge501" locked="0" c_rotation="0" c_width="7.4" c_height="7.4" title="BUZZER1_2" c_shape="ELLIPSE" pasteexpansion="0" solderexpansion="0.2"><ellipse c_etype="pad_shell" cx="4078.5" cy="3140" rx="3.7" ry="3.7" layerid="11" stroke-width="0"/><circle c_etype="pad_hole" cx="4078.5" cy="3140" r="1.77" layerid="11" stroke-width="0"/></g><g c_partid="part_pad" c_etype="pinpart" c_origin="4108.5,3140" layerid="11" number="2" net="Q1_1" plated ="Y"  id="gge516" locked="0" c_rotation="0" c_width="7.4" c_height="7.4" title="Q1_1" c_shape="ELLIPSE" pasteexpansion="0" solderexpansion="0.2"><ellipse c_etype="pad_shell" cx="4108.5" cy="3140" rx="3.7" ry="3.7" layerid="11" stroke-width="0"/><circle c_etype="pad_hole" cx="4108.5" cy="3140" r="1.77" layerid="11" stroke-width="0"/></g><g c_partid="part_pad" c_etype="pinpart" c_origin="4149.051,3110" layerid="11" number="1" net="U1_1" plated ="Y"  id="gge621" locked="0" c_rotation="90" c_width="6" c_height="7.874" title="U1_1" c_shape="OVAL" pasteexpansion="0" solderexpansion="0.2"><polyline  c_etype="pad_shell" points="4148.114 3110 4149.988 3110" layerid="11" stroke-width="6" /><circle c_etype="pad_hole" cx="4149.0512" cy="3110" r="1.7717" layerid="11" stroke-width="0"/></g><g c_partid="part_pad" c_etype="pinpart" c_origin="4117.949,3110" layerid="11" number="8" net="+5V" plated ="Y"  id="gge636" locked="0" c_rotation="90" c_width="6" c_height="7.874" title="+5V" c_shape="OVAL" pasteexpansion="0" solderexpansion="0.2"><polyline  c_etype="pad_shell" points="4117.012 3110 4118.886 3110" layerid="11" stroke-width="6" /><circle c_etype="pad_hole" cx="4117.9489" cy="3110" r="1.7717" layerid="11" stroke-width="0"/></g><g c_partid="part_pad" c_etype="pinpart" c_origin="4149.051,3100" layerid="11" number="2" net="U1_2" plated ="Y"  id="gge651" locked="0" c_rotation="90" c_width="6" c_height="7.874" title="U1_2" c_shape="OVAL" pasteexpansion="0" solderexpansion="0.2"><polyline  c_etype="pad_shell" points="4148.114 3100 4149.988 3100" layerid="11" stroke-width="6" /><circle c_etype="pad_hole" cx="4149.0512" cy="3100" r="1.7717" layerid="11" stroke-width="0"/></g><g c_partid="part_pad" c_etype="pinpart" c_origin="4117.949,3100" layerid="11" number="7" net="U1_7" plated ="Y"  id="gge666" locked="0" c_rotation="90" c_width="6" c_height="7.874" title="U1_7" c_shape="OVAL" pasteexpansion="0" solderexpansion="0.2"><polyline  c_etype="pad_shell" points="4117.012 3100 4118.886 3100" layerid="11" stroke-width="6" /><circle c_etype="pad_hole" cx="4117.9489" cy="3100" r="1.7717" layerid="11" stroke-width="0"/></g><g c_partid="part_pad" c_etype="pinpart" c_origin="4149.051,3090" layerid="11" number="3" net="U1_3" plated ="Y"  id="gge681" locked="0" c_rotation="90" c_width="6" c_height="7.874" title="U1_3" c_shape="OVAL" pasteexpansion="0" solderexpansion="0.2"><polyline  c_etype="pad_shell" points="4148.114 3090 4149.988 3090" layerid="11" stroke-width="6" /><circle c_etype="pad_hole" cx="4149.0512" cy="3090" r="1.7717" layerid="11" stroke-width="0"/></g><g c_partid="part_pad" c_etype="pinpart" c_origin="4117.949,3090" layerid="11" number="6" net="U1_6" plated ="Y"  id="gge696" locked="0" c_rotation="90" c_width="6" c_height="7.874" title="U1_6" c_shape="OVAL" pasteexpansion="0" solderexpansion="0.2"><polyline  c_etype="pad_shell" points="4117.012 3090 4118.886 3090" layerid="11" stroke-width="6" /><circle c_etype="pad_hole" cx="4117.9489" cy="3090" r="1.7717" layerid="11" stroke-width="0"/></g><g c_partid="part_pad" c_etype="pinpart" c_origin="4149.051,3080" layerid="11" number="4" net="GND" plated ="Y"  id="gge711" locked="0" c_rotation="90" c_width="6" c_height="7.874" title="GND" c_shape="OVAL" pasteexpansion="0" solderexpansion="0.2"><polyline  c_etype="pad_shell" points="4148.114 3080 4149.988 3080" layerid="11" stroke-width="6" /><circle c_etype="pad_hole" cx="4149.0512" cy="3080" r="1.7717" layerid="11" stroke-width="0"/></g><g c_partid="part_pad" c_etype="pinpart" c_origin="4117.949,3080" layerid="11" number="5" net="U1_5" plated ="Y"  id="gge726" locked="0" c_rotation="90" c_width="6" c_height="7.874" title="U1_5" c_shape="OVAL" pasteexpansion="0" solderexpansion="0.2"><polyline  c_etype="pad_shell" points="4117.012 3080 4118.886 3080" layerid="11" stroke-width="6" /><circle c_etype="pad_hole" cx="4117.9489" cy="3080" r="1.7717" layerid="11" stroke-width="0"/></g><polyline points="4066 3084.5 4066 3088.5" stroke-width="1"  stroke-linecap="round" fill="none" layerid="3" net="S$35" id="gge57" locked="0" /><polyline points="4068.5 3086.4994 4063.5 3086.4994" stroke-width="1"  stroke-linecap="round" fill="none" layerid="3" net="S$37" id="gge60" locked="0" /><polyline points="4143.5 3065.62 4153.531 3065.641" stroke-width="1"  stroke-linecap="round" fill="none" layerid="3" net="" id="gge114" locked="0" /><polyline points="4134.8354 3141.4864 4119.1646 3141.4864" stroke-width="1"  stroke-linecap="round" fill="none" layerid="3" net="" id="gge207" locked="0" /><polyline points="4169.5 3060 4169.5 3059" stroke-width="1"  stroke-linecap="round" fill="none" layerid="3" net="" id="gge279" locked="0" /><polyline points="4169.5 3080 4169.5 3081" stroke-width="1"  stroke-linecap="round" fill="none" layerid="3" net="" id="gge282" locked="0" /><polyline points="4169.5 3060 4172.5 3060" stroke-width="1"  stroke-linecap="round" fill="none" layerid="3" net="" id="gge285" locked="0" /><polyline points="4166.5 3060 4169.5 3060" stroke-width="1"  stroke-linecap="round" fill="none" layerid="3" net="" id="gge288" locked="0" /><polyline points="4166.5 3080 4166.5 3060" stroke-width="1"  stroke-linecap="round" fill="none" layerid="3" net="" id="gge291" locked="0" /><polyline points="4169.5 3080 4166.5 3080" stroke-width="1"  stroke-linecap="round" fill="none" layerid="3" net="" id="gge294" locked="0" /><polyline points="4172.5 3080 4169.5 3080" stroke-width="1"  stroke-linecap="round" fill="none" layerid="3" net="" id="gge297" locked="0" /><polyline points="4172.5 3060 4172.5 3080" stroke-width="1"  stroke-linecap="round" fill="none" layerid="3" net="" id="gge300" locked="0" /><polyline points="4170 3127.5 4170 3128.5" stroke-width="1"  stroke-linecap="round" fill="none" layerid="3" net="" id="gge369" locked="0" /><polyline points="4170 3107.5 4170 3106.5" stroke-width="1"  stroke-linecap="round" fill="none" layerid="3" net="" id="gge372" locked="0" /><polyline points="4170 3127.5 4167 3127.5" stroke-width="1"  stroke-linecap="round" fill="none" layerid="3" net="" id="gge375" locked="0" /><polyline points="4173 3127.5 4170 3127.5" stroke-width="1"  stroke-linecap="round" fill="none" layerid="3" net="" id="gge378" locked="0" /><polyline points="4173 3107.5 4173 3127.5" stroke-width="1"  stroke-linecap="round" fill="none" layerid="3" net="" id="gge381" locked="0" /><polyline points="4170 3107.5 4173 3107.5" stroke-width="1"  stroke-linecap="round" fill="none" layerid="3" net="" id="gge384" locked="0" /><polyline points="4167 3107.5 4170 3107.5" stroke-width="1"  stroke-linecap="round" fill="none" layerid="3" net="" id="gge387" locked="0" /><polyline points="4167 3127.5 4167 3107.5" stroke-width="1"  stroke-linecap="round" fill="none" layerid="3" net="" id="gge390" locked="0" /><polyline points="4083.5 3140 4082.5 3140" stroke-width="1"  stroke-linecap="round" fill="none" layerid="3" net="" id="gge459" locked="0" /><polyline points="4103.5 3140 4104.5 3140" stroke-width="1"  stroke-linecap="round" fill="none" layerid="3" net="" id="gge462" locked="0" /><polyline points="4083.5 3140 4083.5 3137" stroke-width="1"  stroke-linecap="round" fill="none" layerid="3" net="" id="gge465" locked="0" /><polyline points="4083.5 3143 4083.5 3140" stroke-width="1"  stroke-linecap="round" fill="none" layerid="3" net="" id="gge468" locked="0" /><polyline points="4103.5 3143 4083.5 3143" stroke-width="1"  stroke-linecap="round" fill="none" layerid="3" net="" id="gge471" locked="0" /><polyline points="4103.5 3140 4103.5 3143" stroke-width="1"  stroke-linecap="round" fill="none" layerid="3" net="" id="gge474" locked="0" /><polyline points="4103.5 3137 4103.5 3140" stroke-width="1"  stroke-linecap="round" fill="none" layerid="3" net="" id="gge477" locked="0" /><polyline points="4083.5 3137 4103.5 3137" stroke-width="1"  stroke-linecap="round" fill="none" layerid="3" net="" id="gge480" locked="0" /><polyline points="4136.6496 3113.607 4144.2142 3113.607 4144.2142 3076.3929 4122.7859 3076.3929 4122.7859 3113.607 4130.3504 3113.607" stroke-width="0.6"  stroke-linecap="round" fill="none" layerid="3" net="" id="gge606" locked="0" /><g c_partid="part_pcbtext" c_etype="" c_origin="4074.5,3039" c_rotation="0" c_mirror="0" id="gge9" locked="0" layerid="3" c_shapetype="group" display="none"><path c_fontsize="4.5" c_fontfamily="" c_text="Antenna" d="M 4076.14 3034.46 L 4074.5 3038.75 M 4076.14 3034.46 L 4077.77 3038.75 M 4075.11 3037.32 L 4077.16 3037.32 M 4079.12 3035.89 L 4079.12 3038.75 M 4079.12 3036.71 L 4079.74 3036.1 L 4080.15 3035.89 L 4080.76 3035.89 L 4081.17 3036.1 L 4081.37 3036.71 L 4081.37 3038.75 M 4083.34 3034.46 L 4083.34 3037.94 L 4083.54 3038.55 L 4083.95 3038.75 L 4084.36 3038.75 M 4082.72 3035.89 L 4084.15 3035.89 M 4085.71 3037.12 L 4088.16 3037.12 L 4088.16 3036.71 L 4087.96 3036.3 L 4087.75 3036.1 L 4087.35 3035.89 L 4086.73 3035.89 L 4086.32 3036.1 L 4085.91 3036.5 L 4085.71 3037.12 L 4085.71 3037.53 L 4085.91 3038.14 L 4086.32 3038.55 L 4086.73 3038.75 L 4087.35 3038.75 L 4087.75 3038.55 L 4088.16 3038.14 M 4089.51 3035.89 L 4089.51 3038.75 M 4089.51 3036.71 L 4090.13 3036.1 L 4090.54 3035.89 L 4091.15 3035.89 L 4091.56 3036.1 L 4091.76 3036.71 L 4091.76 3038.75 M 4093.11 3035.89 L 4093.11 3038.75 M 4093.11 3036.71 L 4093.73 3036.1 L 4094.14 3035.89 L 4094.75 3035.89 L 4095.16 3036.1 L 4095.36 3036.71 L 4095.36 3038.75 M 4099.17 3035.89 L 4099.17 3038.75 M 4099.17 3036.5 L 4098.76 3036.1 L 4098.35 3035.89 L 4097.74 3035.89 L 4097.33 3036.1 L 4096.92 3036.5 L 4096.71 3037.12 L 4096.71 3037.53 L 4096.92 3038.14 L 4097.33 3038.55 L 4097.74 3038.75 L 4098.35 3038.75 L 4098.76 3038.55 L 4099.17 3038.14" fill="none"  stroke-width="0.6" c_note="note_name" /></g><g c_partid="part_pcbtext" c_etype="" c_origin="4080,3053" c_rotation="0" c_mirror="0" id="gge15" locked="0" layerid="3" c_shapetype="group" ><path c_fontsize="4.5" c_fontfamily="" c_text="ANT1" d="M 4081.64 3048.46 L 4080 3052.75 M 4081.64 3048.46 L 4083.27 3052.75 M 4080.61 3051.32 L 4082.66 3051.32 M 4084.62 3048.46 L 4084.62 3052.75 M 4084.62 3048.46 L 4087.49 3052.75 M 4087.49 3048.46 L 4087.49 3052.75 M 4090.27 3048.46 L 4090.27 3052.75 M 4088.84 3048.46 L 4091.7 3048.46 M 4093.05 3049.28 L 4093.46 3049.07 L 4094.07 3048.46 L 4094.07 3052.75" fill="none"  stroke-width="0.6" c_note="note_pre" /></g><g c_partid="part_pcbtext" c_etype="" c_origin="4092,3100.539" c_rotation="270" c_mirror="0" id="gge42" locked="0" layerid="3" c_shapetype="group" display="none"><path c_fontsize="4.5" c_fontfamily="" c_text="BL-PBZ1209C2003YB-H COPY" d="M 4096.54 3100.5394 L 4092.25 3100.5394 M 4096.54 3100.5394 L 4096.54 3102.3794 L 4096.34 3102.9894 L 4096.13 3103.1994 L 4095.72 3103.3994 L 4095.31 3103.3994 L 4094.9 3103.1994 L 4094.7 3102.9894 L 4094.5 3102.3794 M 4094.5 3100.5394 L 4094.5 3102.3794 L 4094.29 3102.9894 L 4094.09 3103.1994 L 4093.68 3103.3994 L 4093.06 3103.3994 L 4092.65 3103.1994 L 4092.45 3102.9894 L 4092.25 3102.3794 L 4092.25 3100.5394 M 4096.54 3104.7494 L 4092.25 3104.7494 M 4092.25 3104.7494 L 4092.25 3107.2094 M 4094.09 3108.5594 L 4094.09 3112.2394 M 4096.54 3113.5894 L 4092.25 3113.5894 M 4096.54 3113.5894 L 4096.54 3115.4294 L 4096.34 3116.0394 L 4096.13 3116.2494 L 4095.72 3116.4494 L 4095.11 3116.4494 L 4094.7 3116.2494 L 4094.5 3116.0394 L 4094.29 3115.4294 L 4094.29 3113.5894 M 4096.54 3117.7994 L 4092.25 3117.7994 M 4096.54 3117.7994 L 4096.54 3119.6394 L 4096.34 3120.2594 L 4096.13 3120.4594 L 4095.72 3120.6694 L 4095.31 3120.6694 L 4094.9 3120.4594 L 4094.7 3120.2594 L 4094.5 3119.6394 M 4094.5 3117.7994 L 4094.5 3119.6394 L 4094.29 3120.2594 L 4094.09 3120.4594 L 4093.68 3120.6694 L 4093.06 3120.6694 L 4092.65 3120.4594 L 4092.45 3120.2594 L 4092.25 3119.6394 L 4092.25 3117.7994 M 4096.54 3124.8794 L 4092.25 3122.0194 M 4096.54 3122.0194 L 4096.54 3124.8794 M 4092.25 3122.0194 L 4092.25 3124.8794 M 4095.72 3126.2294 L 4095.93 3126.6394 L 4096.54 3127.2494 L 4092.25 3127.2494 M 4095.52 3128.8094 L 4095.72 3128.8094 L 4096.13 3129.0094 L 4096.34 3129.2194 L 4096.54 3129.6294 L 4096.54 3130.4394 L 4096.34 3130.8494 L 4096.13 3131.0594 L 4095.72 3131.2594 L 4095.31 3131.2594 L 4094.9 3131.0594 L 4094.29 3130.6494 L 4092.25 3128.5994 L 4092.25 3131.4694 M 4096.54 3134.0394 L 4096.34 3133.4294 L 4095.72 3133.0194 L 4094.7 3132.8194 L 4094.09 3132.8194 L 4093.06 3133.0194 L 4092.45 3133.4294 L 4092.25 3134.0394 L 4092.25 3134.4494 L 4092.45 3135.0694 L 4093.06 3135.4794 L 4094.09 3135.6794 L 4094.7 3135.6794 L 4095.72 3135.4794 L 4096.34 3135.0694 L 4096.54 3134.4494 L 4096.54 3134.0394 M 4095.11 3139.6894 L 4094.5 3139.4894 L 4094.09 3139.0794 L 4093.88 3138.4594 L 4093.88 3138.2594 L 4094.09 3137.6394 L 4094.5 3137.2394 L 4095.11 3137.0294 L 4095.31 3137.0294 L 4095.93 3137.2394 L 4096.34 3137.6394 L 4096.54 3138.2594 L 4096.54 3138.4594 L 4096.34 3139.0794 L 4095.93 3139.4894 L 4095.11 3139.6894 L 4094.09 3139.6894 L 4093.06 3139.4894 L 4092.45 3139.0794 L 4092.25 3138.4594 L 4092.25 3138.0494 L 4092.45 3137.4394 L 4092.86 3137.2394 M 4095.52 3144.1094 L 4095.93 3143.8994 L 4096.34 3143.4894 L 4096.54 3143.0894 L 4096.54 3142.2694 L 4096.34 3141.8594 L 4095.93 3141.4494 L 4095.52 3141.2394 L 4094.9 3141.0394 L 4093.88 3141.0394 L 4093.27 3141.2394 L 4092.86 3141.4494 L 4092.45 3141.8594 L 4092.25 3142.2694 L 4092.25 3143.0894 L 4092.45 3143.4894 L 4092.86 3143.8994 L 4093.27 3144.1094 M 4095.52 3145.6594 L 4095.72 3145.6594 L 4096.13 3145.8694 L 4096.34 3146.0694 L 4096.54 3146.4794 L 4096.54 3147.2994 L 4096.34 3147.7094 L 4096.13 3147.9094 L 4095.72 3148.1194 L 4095.31 3148.1194 L 4094.9 3147.9094 L 4094.29 3147.4994 L 4092.25 3145.4594 L 4092.25 3148.3194 M 4096.54 3150.8994 L 4096.34 3150.2894 L 4095.72 3149.8794 L 4094.7 3149.6694 L 4094.09 3149.6694 L 4093.06 3149.8794 L 4092.45 3150.2894 L 4092.25 3150.8994 L 4092.25 3151.3094 L 4092.45 3151.9194 L 4093.06 3152.3294 L 4094.09 3152.5394 L 4094.7 3152.5394 L 4095.72 3152.3294 L 4096.34 3151.9194 L 4096.54 3151.3094 L 4096.54 3150.8994 M 4096.54 3155.1094 L 4096.34 3154.4994 L 4095.72 3154.0894 L 4094.7 3153.8894 L 4094.09 3153.8894 L 4093.06 3154.0894 L 4092.45 3154.4994 L 4092.25 3155.1094 L 4092.25 3155.5194 L 4092.45 3156.1394 L 4093.06 3156.5394 L 4094.09 3156.7494 L 4094.7 3156.7494 L 4095.72 3156.5394 L 4096.34 3156.1394 L 4096.54 3155.5194 L 4096.54 3155.1094 M 4096.54 3158.5094 L 4096.54 3160.7594 L 4094.9 3159.5294 L 4094.9 3160.1394 L 4094.7 3160.5494 L 4094.5 3160.7594 L 4093.88 3160.9594 L 4093.47 3160.9594 L 4092.86 3160.7594 L 4092.45 3160.3494 L 4092.25 3159.7394 L 4092.25 3159.1194 L 4092.45 3158.5094 L 4092.65 3158.2994 L 4093.06 3158.0994 M 4096.54 3162.3094 L 4094.5 3163.9494 L 4092.25 3163.9494 M 4096.54 3165.5894 L 4094.5 3163.9494 M 4096.54 3166.9394 L 4092.25 3166.9394 M 4096.54 3166.9394 L 4096.54 3168.7794 L 4096.34 3169.3894 L 4096.13 3169.5894 L 4095.72 3169.7994 L 4095.31 3169.7994 L 4094.9 3169.5894 L 4094.7 3169.3894 L 4094.5 3168.7794 M 4094.5 3166.9394 L 4094.5 3168.7794 L 4094.29 3169.3894 L 4094.09 3169.5894 L 4093.68 3169.7994 L 4093.06 3169.7994 L 4092.65 3169.5894 L 4092.45 3169.3894 L 4092.25 3168.7794 L 4092.25 3166.9394 M 4094.09 3171.1494 L 4094.09 3174.8294 M 4096.54 3176.1794 L 4092.25 3176.1794 M 4096.54 3179.0394 L 4092.25 3179.0394 M 4094.5 3176.1794 L 4094.5 3179.0394 M 4095.52 3186.6094 L 4095.93 3186.4094 L 4096.34 3185.9994 L 4096.54 3185.5894 L 4096.54 3184.7694 L 4096.34 3184.3594 L 4095.93 3183.9494 L 4095.52 3183.7494 L 4094.9 3183.5394 L 4093.88 3183.5394 L 4093.27 3183.7494 L 4092.86 3183.9494 L 4092.45 3184.3594 L 4092.25 3184.7694 L 4092.25 3185.5894 L 4092.45 3185.9994 L 4092.86 3186.4094 L 4093.27 3186.6094 M 4096.54 3189.1894 L 4096.34 3188.7794 L 4095.93 3188.3694 L 4095.52 3188.1694 L 4094.9 3187.9594 L 4093.88 3187.9594 L 4093.27 3188.1694 L 4092.86 3188.3694 L 4092.45 3188.7794 L 4092.25 3189.1894 L 4092.25 3190.0094 L 4092.45 3190.4194 L 4092.86 3190.8294 L 4093.27 3191.0294 L 4093.88 3191.2394 L 4094.9 3191.2394 L 4095.52 3191.0294 L 4095.93 3190.8294 L 4096.34 3190.4194 L 4096.54 3190.0094 L 4096.54 3189.1894 M 4096.54 3192.5894 L 4092.25 3192.5894 M 4096.54 3192.5894 L 4096.54 3194.4294 L 4096.34 3195.0394 L 4096.13 3195.2394 L 4095.72 3195.4494 L 4095.11 3195.4494 L 4094.7 3195.2394 L 4094.5 3195.0394 L 4094.29 3194.4294 L 4094.29 3192.5894 M 4096.54 3196.7994 L 4094.5 3198.4394 L 4092.25 3198.4394 M 4096.54 3200.0694 L 4094.5 3198.4394" fill="none"  stroke-width="0.6" c_note="note_name" /></g><g c_partid="part_pcbtext" c_etype="" c_origin="4044.5,3073.5" c_rotation="0" c_mirror="0" id="gge48" locked="0" layerid="3" c_shapetype="group" ><path c_fontsize="4.5" c_fontfamily="" c_text="SPEAKER1" d="M 4047.36 3069.57 L 4046.95 3069.16 L 4046.34 3068.96 L 4045.52 3068.96 L 4044.91 3069.16 L 4044.5 3069.57 L 4044.5 3069.98 L 4044.7 3070.39 L 4044.91 3070.6 L 4045.32 3070.8 L 4046.55 3071.21 L 4046.95 3071.41 L 4047.16 3071.62 L 4047.36 3072.03 L 4047.36 3072.64 L 4046.95 3073.05 L 4046.34 3073.25 L 4045.52 3073.25 L 4044.91 3073.05 L 4044.5 3072.64 M 4048.71 3068.96 L 4048.71 3073.25 M 4048.71 3068.96 L 4050.55 3068.96 L 4051.17 3069.16 L 4051.37 3069.37 L 4051.58 3069.78 L 4051.58 3070.39 L 4051.37 3070.8 L 4051.17 3071 L 4050.55 3071.21 L 4048.71 3071.21 M 4052.93 3068.96 L 4052.93 3073.25 M 4052.93 3068.96 L 4055.59 3068.96 M 4052.93 3071 L 4054.56 3071 M 4052.93 3073.25 L 4055.59 3073.25 M 4058.57 3068.96 L 4056.94 3073.25 M 4058.57 3068.96 L 4060.21 3073.25 M 4057.55 3071.82 L 4059.6 3071.82 M 4061.56 3068.96 L 4061.56 3073.25 M 4064.42 3068.96 L 4061.56 3071.82 M 4062.58 3070.8 L 4064.42 3073.25 M 4065.77 3068.96 L 4065.77 3073.25 M 4065.77 3068.96 L 4068.43 3068.96 M 4065.77 3071 L 4067.41 3071 M 4065.77 3073.25 L 4068.43 3073.25 M 4069.78 3068.96 L 4069.78 3073.25 M 4069.78 3068.96 L 4071.62 3068.96 L 4072.24 3069.16 L 4072.44 3069.37 L 4072.65 3069.78 L 4072.65 3070.19 L 4072.44 3070.6 L 4072.24 3070.8 L 4071.62 3071 L 4069.78 3071 M 4071.21 3071 L 4072.65 3073.25 M 4074 3069.78 L 4074.4 3069.57 L 4075.02 3068.96 L 4075.02 3073.25" fill="none"  stroke-width="0.6" c_note="note_pre" /></g><g c_partid="part_pcbtext" c_etype="" c_origin="4147.5,3043" c_rotation="0" c_mirror="0" id="gge102" locked="0" layerid="3" c_shapetype="group" display="none"><path c_fontsize="4.5" c_fontfamily="" c_text="LED-TH-3mm_B" d="M 4147.5 3038.46 L 4147.5 3042.75 M 4147.5 3042.75 L 4149.95 3042.75 M 4151.3 3038.46 L 4151.3 3042.75 M 4151.3 3038.46 L 4153.96 3038.46 M 4151.3 3040.5 L 4152.94 3040.5 M 4151.3 3042.75 L 4153.96 3042.75 M 4155.31 3038.46 L 4155.31 3042.75 M 4155.31 3038.46 L 4156.75 3038.46 L 4157.36 3038.66 L 4157.77 3039.07 L 4157.97 3039.48 L 4158.18 3040.1 L 4158.18 3041.12 L 4157.97 3041.73 L 4157.77 3042.14 L 4157.36 3042.55 L 4156.75 3042.75 L 4155.31 3042.75 M 4159.53 3040.91 L 4163.21 3040.91 M 4165.99 3038.46 L 4165.99 3042.75 M 4164.56 3038.46 L 4167.42 3038.46 M 4168.77 3038.46 L 4168.77 3042.75 M 4171.64 3038.46 L 4171.64 3042.75 M 4168.77 3040.5 L 4171.64 3040.5 M 4172.99 3040.91 L 4176.67 3040.91 M 4178.43 3038.46 L 4180.68 3038.46 L 4179.45 3040.1 L 4180.06 3040.1 L 4180.47 3040.3 L 4180.68 3040.5 L 4180.88 3041.12 L 4180.88 3041.53 L 4180.68 3042.14 L 4180.27 3042.55 L 4179.65 3042.75 L 4179.04 3042.75 L 4178.43 3042.55 L 4178.22 3042.35 L 4178.02 3041.94 M 4182.23 3039.89 L 4182.23 3042.75 M 4182.23 3040.71 L 4182.85 3040.1 L 4183.25 3039.89 L 4183.87 3039.89 L 4184.28 3040.1 L 4184.48 3040.71 L 4184.48 3042.75 M 4184.48 3040.71 L 4185.1 3040.1 L 4185.5 3039.89 L 4186.12 3039.89 L 4186.53 3040.1 L 4186.73 3040.71 L 4186.73 3042.75 M 4188.08 3039.89 L 4188.08 3042.75 M 4188.08 3040.71 L 4188.7 3040.1 L 4189.1 3039.89 L 4189.72 3039.89 L 4190.13 3040.1 L 4190.33 3040.71 L 4190.33 3042.75 M 4190.33 3040.71 L 4190.95 3040.1 L 4191.35 3039.89 L 4191.97 3039.89 L 4192.38 3040.1 L 4192.58 3040.71 L 4192.58 3042.75 M 4193.93 3044.19 L 4197.61 3044.19 M 4198.96 3038.46 L 4198.96 3042.75 M 4198.96 3038.46 L 4200.8 3038.46 L 4201.42 3038.66 L 4201.62 3038.87 L 4201.83 3039.28 L 4201.83 3039.69 L 4201.62 3040.1 L 4201.42 3040.3 L 4200.8 3040.5 M 4198.96 3040.5 L 4200.8 3040.5 L 4201.42 3040.71 L 4201.62 3040.91 L 4201.83 3041.32 L 4201.83 3041.94 L 4201.62 3042.35 L 4201.42 3042.55 L 4200.8 3042.75 L 4198.96 3042.75" fill="none"  stroke-width="0.6" c_note="note_name" /></g><g c_partid="part_pcbtext" c_etype="" c_origin="4124,3060.5" c_rotation="0" c_mirror="0" id="gge108" locked="0" layerid="3" c_shapetype="group" ><path c_fontsize="4.5" c_fontfamily="" c_text="LED1" d="M 4124 3055.96 L 4124 3060.25 M 4124 3060.25 L 4126.45 3060.25 M 4127.8 3055.96 L 4127.8 3060.25 M 4127.8 3055.96 L 4130.46 3055.96 M 4127.8 3058 L 4129.44 3058 M 4127.8 3060.25 L 4130.46 3060.25 M 4131.81 3055.96 L 4131.81 3060.25 M 4131.81 3055.96 L 4133.25 3055.96 L 4133.86 3056.16 L 4134.27 3056.57 L 4134.47 3056.98 L 4134.68 3057.6 L 4134.68 3058.62 L 4134.47 3059.23 L 4134.27 3059.64 L 4133.86 3060.05 L 4133.25 3060.25 L 4131.81 3060.25 M 4136.03 3056.78 L 4136.44 3056.57 L 4137.05 3055.96 L 4137.05 3060.25" fill="none"  stroke-width="0.6" c_note="note_pre" /></g><g c_partid="part_pcbtext" c_etype="" c_origin="4126,3116.571" c_rotation="0" c_mirror="0" id="gge174" locked="0" layerid="3" c_shapetype="group" display="none"><path c_fontsize="4.5" c_fontfamily="" c_text="PN2222ABU" d="M 4126 3112.031 L 4126 3116.321 M 4126 3112.031 L 4127.84 3112.031 L 4128.45 3112.231 L 4128.66 3112.441 L 4128.86 3112.851 L 4128.86 3113.461 L 4128.66 3113.871 L 4128.45 3114.071 L 4127.84 3114.281 L 4126 3114.281 M 4130.21 3112.031 L 4130.21 3116.321 M 4130.21 3112.031 L 4133.08 3116.321 M 4133.08 3112.031 L 4133.08 3116.321 M 4134.63 3113.051 L 4134.63 3112.851 L 4134.84 3112.441 L 4135.04 3112.231 L 4135.45 3112.031 L 4136.27 3112.031 L 4136.68 3112.231 L 4136.88 3112.441 L 4137.09 3112.851 L 4137.09 3113.261 L 4136.88 3113.671 L 4136.47 3114.281 L 4134.43 3116.321 L 4137.29 3116.321 M 4138.85 3113.051 L 4138.85 3112.851 L 4139.05 3112.441 L 4139.25 3112.231 L 4139.66 3112.031 L 4140.48 3112.031 L 4140.89 3112.231 L 4141.1 3112.441 L 4141.3 3112.851 L 4141.3 3113.261 L 4141.1 3113.671 L 4140.69 3114.281 L 4138.64 3116.321 L 4141.5 3116.321 M 4143.06 3113.051 L 4143.06 3112.851 L 4143.26 3112.441 L 4143.47 3112.231 L 4143.88 3112.031 L 4144.7 3112.031 L 4145.1 3112.231 L 4145.31 3112.441 L 4145.51 3112.851 L 4145.51 3113.261 L 4145.31 3113.671 L 4144.9 3114.281 L 4142.85 3116.321 L 4145.72 3116.321 M 4147.27 3113.051 L 4147.27 3112.851 L 4147.48 3112.441 L 4147.68 3112.231 L 4148.09 3112.031 L 4148.91 3112.031 L 4149.32 3112.231 L 4149.52 3112.441 L 4149.73 3112.851 L 4149.73 3113.261 L 4149.52 3113.671 L 4149.11 3114.281 L 4147.07 3116.321 L 4149.93 3116.321 M 4152.92 3112.031 L 4151.28 3116.321 M 4152.92 3112.031 L 4154.55 3116.321 M 4151.9 3114.891 L 4153.94 3114.891 M 4155.9 3112.031 L 4155.9 3116.321 M 4155.9 3112.031 L 4157.75 3112.031 L 4158.36 3112.231 L 4158.56 3112.441 L 4158.77 3112.851 L 4158.77 3113.261 L 4158.56 3113.671 L 4158.36 3113.871 L 4157.75 3114.071 M 4155.9 3114.071 L 4157.75 3114.071 L 4158.36 3114.281 L 4158.56 3114.481 L 4158.77 3114.891 L 4158.77 3115.511 L 4158.56 3115.921 L 4158.36 3116.121 L 4157.75 3116.321 L 4155.9 3116.321 M 4160.12 3112.031 L 4160.12 3115.101 L 4160.32 3115.711 L 4160.73 3116.121 L 4161.35 3116.321 L 4161.75 3116.321 L 4162.37 3116.121 L 4162.78 3115.711 L 4162.98 3115.101 L 4162.98 3112.031" fill="none"  stroke-width="0.6" c_note="note_name" /></g><g c_partid="part_pcbtext" c_etype="" c_origin="4122,3123.5" c_rotation="0" c_mirror="0" id="gge180" locked="0" layerid="3" c_shapetype="group" ><path c_fontsize="4.5" c_fontfamily="" c_text="Q1" d="M 4123.23 3118.96 L 4122.82 3119.16 L 4122.41 3119.57 L 4122.2 3119.98 L 4122 3120.6 L 4122 3121.62 L 4122.2 3122.23 L 4122.41 3122.64 L 4122.82 3123.05 L 4123.23 3123.25 L 4124.05 3123.25 L 4124.45 3123.05 L 4124.86 3122.64 L 4125.07 3122.23 L 4125.27 3121.62 L 4125.27 3120.6 L 4125.07 3119.98 L 4124.86 3119.57 L 4124.45 3119.16 L 4124.05 3118.96 L 4123.23 3118.96 M 4123.84 3122.44 L 4125.07 3123.66 M 4126.62 3119.78 L 4127.03 3119.57 L 4127.65 3118.96 L 4127.65 3123.25" fill="none"  stroke-width="0.6" c_note="note_pre" /></g><g c_partid="part_pcbtext" c_etype="" c_origin="4181.5,3070" c_rotation="270" c_mirror="0" id="gge267" locked="0" layerid="3" c_shapetype="group" display="none"><path c_fontsize="4.5" c_fontfamily="" c_text="220" d="M 4185.02 3070.2 L 4185.22 3070.2 L 4185.63 3070.41 L 4185.84 3070.61 L 4186.04 3071.02 L 4186.04 3071.84 L 4185.84 3072.25 L 4185.63 3072.45 L 4185.22 3072.66 L 4184.81 3072.66 L 4184.4 3072.45 L 4183.79 3072.05 L 4181.75 3070 L 4181.75 3072.86 M 4185.02 3074.42 L 4185.22 3074.42 L 4185.63 3074.62 L 4185.84 3074.83 L 4186.04 3075.24 L 4186.04 3076.05 L 4185.84 3076.46 L 4185.63 3076.67 L 4185.22 3076.87 L 4184.81 3076.87 L 4184.4 3076.67 L 4183.79 3076.26 L 4181.75 3074.21 L 4181.75 3077.08 M 4186.04 3079.65 L 4185.84 3079.04 L 4185.22 3078.63 L 4184.2 3078.43 L 4183.59 3078.43 L 4182.56 3078.63 L 4181.95 3079.04 L 4181.75 3079.65 L 4181.75 3080.06 L 4181.95 3080.68 L 4182.56 3081.09 L 4183.59 3081.29 L 4184.2 3081.29 L 4185.22 3081.09 L 4185.84 3080.68 L 4186.04 3080.06 L 4186.04 3079.65" fill="none"  stroke-width="0.6" c_note="note_name" /></g><g c_partid="part_pcbtext" c_etype="" c_origin="4158.5,3072.5" c_rotation="0" c_mirror="0" id="gge273" locked="0" layerid="3" c_shapetype="group" ><path c_fontsize="4.5" c_fontfamily="" c_text="R1" d="M 4158.5 3067.96 L 4158.5 3072.25 M 4158.5 3067.96 L 4160.34 3067.96 L 4160.95 3068.16 L 4161.16 3068.37 L 4161.36 3068.78 L 4161.36 3069.19 L 4161.16 3069.6 L 4160.95 3069.8 L 4160.34 3070 L 4158.5 3070 M 4159.93 3070 L 4161.36 3072.25 M 4162.71 3068.78 L 4163.12 3068.57 L 4163.74 3067.96 L 4163.74 3072.25" fill="none"  stroke-width="0.6" c_note="note_pre" /></g><g c_partid="part_pcbtext" c_etype="" c_origin="4158,3117.5" c_rotation="90" c_mirror="0" id="gge357" locked="0" layerid="3" c_shapetype="group" display="none"><path c_fontsize="4.5" c_fontfamily="" c_text="1k" d="M 4154.28 3117.5 L 4154.07 3117.09 L 4153.46 3116.48 L 4157.75 3116.48 M 4153.46 3115.13 L 4157.75 3115.13 M 4154.89 3113.08 L 4156.94 3115.13 M 4156.12 3114.31 L 4157.75 3112.88" fill="none"  stroke-width="0.6" c_note="note_name" /></g><g c_partid="part_pcbtext" c_etype="" c_origin="4156.5,3117" c_rotation="0" c_mirror="0" id="gge363" locked="0" layerid="3" c_shapetype="group" ><path c_fontsize="4.5" c_fontfamily="" c_text="R2" d="M 4156.5 3112.46 L 4156.5 3116.75 M 4156.5 3112.46 L 4158.34 3112.46 L 4158.95 3112.66 L 4159.16 3112.87 L 4159.36 3113.28 L 4159.36 3113.69 L 4159.16 3114.1 L 4158.95 3114.3 L 4158.34 3114.5 L 4156.5 3114.5 M 4157.93 3114.5 L 4159.36 3116.75 M 4160.92 3113.48 L 4160.92 3113.28 L 4161.12 3112.87 L 4161.33 3112.66 L 4161.74 3112.46 L 4162.55 3112.46 L 4162.96 3112.66 L 4163.17 3112.87 L 4163.37 3113.28 L 4163.37 3113.69 L 4163.17 3114.1 L 4162.76 3114.71 L 4160.71 3116.75 L 4163.58 3116.75" fill="none"  stroke-width="0.6" c_note="note_pre" /></g><g c_partid="part_pcbtext" c_etype="" c_origin="4093.5,3128" c_rotation="0" c_mirror="0" id="gge447" locked="0" layerid="3" c_shapetype="group" display="none"><path c_fontsize="4.5" c_fontfamily="" c_text="100" d="M 4093.5 3124.28 L 4093.91 3124.07 L 4094.52 3123.46 L 4094.52 3127.75 M 4097.1 3123.46 L 4096.49 3123.66 L 4096.08 3124.28 L 4095.87 3125.3 L 4095.87 3125.91 L 4096.08 3126.94 L 4096.49 3127.55 L 4097.1 3127.75 L 4097.51 3127.75 L 4098.12 3127.55 L 4098.53 3126.94 L 4098.74 3125.91 L 4098.74 3125.3 L 4098.53 3124.28 L 4098.12 3123.66 L 4097.51 3123.46 L 4097.1 3123.46 M 4101.31 3123.46 L 4100.7 3123.66 L 4100.29 3124.28 L 4100.09 3125.3 L 4100.09 3125.91 L 4100.29 3126.94 L 4100.7 3127.55 L 4101.31 3127.75 L 4101.72 3127.75 L 4102.34 3127.55 L 4102.75 3126.94 L 4102.95 3125.91 L 4102.95 3125.3 L 4102.75 3124.28 L 4102.34 3123.66 L 4101.72 3123.46 L 4101.31 3123.46" fill="none"  stroke-width="0.6" c_note="note_name" /></g><g c_partid="part_pcbtext" c_etype="" c_origin="4091,3135" c_rotation="0" c_mirror="0" id="gge453" locked="0" layerid="3" c_shapetype="group" ><path c_fontsize="4.5" c_fontfamily="" c_text="R3" d="M 4091 3130.46 L 4091 3134.75 M 4091 3130.46 L 4092.84 3130.46 L 4093.45 3130.66 L 4093.66 3130.87 L 4093.86 3131.28 L 4093.86 3131.69 L 4093.66 3132.1 L 4093.45 3132.3 L 4092.84 3132.5 L 4091 3132.5 M 4092.43 3132.5 L 4093.86 3134.75 M 4095.62 3130.46 L 4097.87 3130.46 L 4096.65 3132.1 L 4097.26 3132.1 L 4097.67 3132.3 L 4097.87 3132.5 L 4098.08 3133.12 L 4098.08 3133.53 L 4097.87 3134.14 L 4097.46 3134.55 L 4096.85 3134.75 L 4096.24 3134.75 L 4095.62 3134.55 L 4095.42 3134.35 L 4095.21 3133.94" fill="none"  stroke-width="0.6" c_note="note_pre" /></g><g c_partid="part_pcbtext" c_etype="" c_origin="4106.5,3097" c_rotation="90" c_mirror="0" id="gge537" locked="0" layerid="3" c_shapetype="group" display="none"><path c_fontsize="4.5" c_fontfamily="" c_text="ATTINY85-20PU" d="M 4101.96 3095.36 L 4106.25 3097 M 4101.96 3095.36 L 4106.25 3093.73 M 4104.82 3096.39 L 4104.82 3094.34 M 4101.96 3090.95 L 4106.25 3090.95 M 4101.96 3092.38 L 4101.96 3089.51 M 4101.96 3086.73 L 4106.25 3086.73 M 4101.96 3088.16 L 4101.96 3085.3 M 4101.96 3083.95 L 4106.25 3083.95 M 4101.96 3082.6 L 4106.25 3082.6 M 4101.96 3082.6 L 4106.25 3079.74 M 4101.96 3079.74 L 4106.25 3079.74 M 4101.96 3078.39 L 4104 3076.75 L 4106.25 3076.75 M 4101.96 3075.11 L 4104 3076.75 M 4101.96 3072.74 L 4102.16 3073.35 L 4102.57 3073.56 L 4102.98 3073.56 L 4103.39 3073.35 L 4103.6 3072.95 L 4103.8 3072.13 L 4104 3071.51 L 4104.41 3071.1 L 4104.82 3070.9 L 4105.44 3070.9 L 4105.85 3071.1 L 4106.05 3071.31 L 4106.25 3071.92 L 4106.25 3072.74 L 4106.05 3073.35 L 4105.85 3073.56 L 4105.44 3073.76 L 4104.82 3073.76 L 4104.41 3073.56 L 4104 3073.15 L 4103.8 3072.54 L 4103.6 3071.72 L 4103.39 3071.31 L 4102.98 3071.1 L 4102.57 3071.1 L 4102.16 3071.31 L 4101.96 3071.92 L 4101.96 3072.74 M 4101.96 3067.1 L 4101.96 3069.14 L 4103.8 3069.35 L 4103.6 3069.14 L 4103.39 3068.53 L 4103.39 3067.91 L 4103.6 3067.3 L 4104 3066.89 L 4104.62 3066.69 L 4105.03 3066.69 L 4105.64 3066.89 L 4106.05 3067.3 L 4106.25 3067.91 L 4106.25 3068.53 L 4106.05 3069.14 L 4105.85 3069.35 L 4105.44 3069.55 M 4104.41 3065.34 L 4104.41 3061.65 M 4102.98 3060.1 L 4102.78 3060.1 L 4102.37 3059.9 L 4102.16 3059.69 L 4101.96 3059.28 L 4101.96 3058.46 L 4102.16 3058.05 L 4102.37 3057.85 L 4102.78 3057.65 L 4103.19 3057.65 L 4103.6 3057.85 L 4104.21 3058.26 L 4106.25 3060.3 L 4106.25 3057.44 M 4101.96 3054.86 L 4102.16 3055.48 L 4102.78 3055.89 L 4103.8 3056.09 L 4104.41 3056.09 L 4105.44 3055.89 L 4106.05 3055.48 L 4106.25 3054.86 L 4106.25 3054.45 L 4106.05 3053.84 L 4105.44 3053.43 L 4104.41 3053.23 L 4103.8 3053.23 L 4102.78 3053.43 L 4102.16 3053.84 L 4101.96 3054.45 L 4101.96 3054.86 M 4101.96 3051.88 L 4106.25 3051.88 M 4101.96 3051.88 L 4101.96 3050.04 L 4102.16 3049.42 L 4102.37 3049.22 L 4102.78 3049.01 L 4103.39 3049.01 L 4103.8 3049.22 L 4104 3049.42 L 4104.21 3050.04 L 4104.21 3051.88 M 4101.96 3047.66 L 4105.03 3047.66 L 4105.64 3047.46 L 4106.05 3047.05 L 4106.25 3046.44 L 4106.25 3046.03 L 4106.05 3045.41 L 4105.64 3045 L 4105.03 3044.8 L 4101.96 3044.8" fill="none"  stroke-width="0.6" c_note="note_name" /></g><g c_partid="part_pcbtext" c_etype="" c_origin="4130,3074" c_rotation="0" c_mirror="0" id="gge543" locked="0" layerid="3" c_shapetype="group" ><path c_fontsize="4.5" c_fontfamily="" c_text="U1" d="M 4130 3069.46 L 4130 3072.53 L 4130.2 3073.14 L 4130.61 3073.55 L 4131.23 3073.75 L 4131.64 3073.75 L 4132.25 3073.55 L 4132.66 3073.14 L 4132.86 3072.53 L 4132.86 3069.46 M 4134.21 3070.28 L 4134.62 3070.07 L 4135.24 3069.46 L 4135.24 3073.75" fill="none"  stroke-width="0.6" c_note="note_pre" /></g><path d="M 4059 3125.5 A 24 24 0 1 0 4058.0009 3125.4792" locked="0"  fill="none" stroke-width="1" c_helper_type="arc2" net="" layerid="3" id="gge54" /><path d="M 4057 3107.5 A 6.3246 6.3246 0 1 0 4056.1716 3107.1569" locked="0"  fill="none" stroke-width="1" c_helper_type="arc2" net="" layerid="3" id="gge63" /><path d="M 4153.482 3065.62 A 7.874 7.874 0 1 0 4143.502 3065.62" locked="0"  fill="none" stroke-width="1" c_helper_type="arc2" net="" layerid="3" id="gge117" /><path d="M 4134.8354 3141.4864 A 9.5653 9.5653 0 1 0 4119.1646 3141.4864" locked="0"  fill="none" stroke-width="1" c_helper_type="arc2" net="" layerid="3" id="gge204" /><path d="M 4136.6496 3113.607 A 3.1496 3.1496 0 0 0 4130.3504 3113.607" locked="0"  fill="none" stroke-width="0.6" c_helper_type="arc2" net="" layerid="3" id="gge609" /><circle cx="4148.47" cy="3115.679" r="0.591" stroke-width="1.1811" fill="none" layerid="3" id="gge612" locked="0"  /><polyline points="4030 3121.5 4030 3044 4180.5 3044 4180.5 3134.5 4165 3150 4058.5 3150 4030 3150" stroke-width="1"  stroke-linecap="round" fill="none" layerid="10" net="S$885" id="gge884" locked="0" /><polyline points="4030 3150 4030 3121.5" stroke-width="1"  stroke-linecap="round" fill="none" layerid="10" net="S$889" id="gge888" locked="0" /></svg>